<svg width="420" height="340" viewBox="0 0 420 340" fill="none" xmlns="http://www.w3.org/2000/svg">
<path d="M228.833 232.271C253.943 226.363 268.714 211.592 273.145 187.959" stroke="#2C2A26" stroke-width="13" stroke-linecap="round"/>
<path d="M228.833 232.271C253.943 226.363 268.714 211.592 273.145 187.959" stroke="#FFFDF8" stroke-width="8" stroke-linecap="round"/>
<path d="M277.576 195.714C284.306 195.714 289.762 190.258 289.762 183.528C289.762 176.798 284.306 171.342 277.576 171.342C270.846 171.342 265.391 176.798 265.391 183.528C265.391 190.258 270.846 195.714 277.576 195.714Z" fill="#F3D2AD" stroke="#2C2A26" stroke-width="3"/>
<path d="M141.699 284.779C141.699 240.467 160.162 218.311 197.089 218.311C234.015 218.311 252.478 240.467 252.478 284.779V289.21H141.699V284.779Z" fill="#FFFDF8" stroke="#2C2A26" stroke-width="3.5"/>
<path d="M219.245 229.389H174.933C168.815 229.389 163.855 234.349 163.855 240.467V282.563C163.855 288.681 168.815 293.641 174.933 293.641H219.245C225.363 293.641 230.322 288.681 230.322 282.563V240.467C230.322 234.349 225.363 229.389 219.245 229.389Z" fill="#235B3E" stroke="#2C2A26" stroke-width="3"/>
<path d="M168.17 231.137L179.194 204.909M225.495 231.137L214.471 204.909" stroke="#2C2A26" stroke-width="3" stroke-linecap="round"/>
<path d="M168.286 264.839H225.891" stroke="#143726" stroke-width="2.6"/>
<path d="M211.49 269.27H182.688C180.852 269.27 179.364 270.758 179.364 272.593V283.671C179.364 285.507 180.852 286.994 182.688 286.994H211.49C213.326 286.994 214.814 285.507 214.814 283.671V272.593C214.814 270.758 213.326 269.27 211.49 269.27Z" stroke="#143726" stroke-width="2.4"/>
<path d="M189.836 329.096C281.608 329.096 356.005 319.176 356.005 306.94C356.005 294.704 281.608 284.784 189.836 284.784C98.0635 284.784 23.6672 294.704 23.6672 306.94C23.6672 319.176 98.0635 329.096 189.836 329.096Z" fill="#F4E7CC"/>
<path d="M201.52 202.802H192.658C190.21 202.802 188.227 204.786 188.227 207.233V213.88C188.227 216.327 190.21 218.311 192.658 218.311H201.52C203.967 218.311 205.951 216.327 205.951 213.88V207.233C205.951 204.786 203.967 202.802 201.52 202.802Z" fill="#F3D2AD" stroke="#2C2A26" stroke-width="2.6"/>
<path d="M197.089 207.234C217.89 207.234 234.754 190.37 234.754 169.569C234.754 148.767 217.89 131.904 197.089 131.904C176.287 131.904 159.424 148.767 159.424 169.569C159.424 190.37 176.287 207.234 197.089 207.234Z" fill="#F3D2AD" stroke="#2C2A26" stroke-width="3"/>
<path d="M159.424 169.568C159.424 140.027 171.979 125.257 197.089 125.257C222.199 125.257 234.754 140.027 234.754 169.568C224.414 154.798 211.859 148.151 197.089 149.628C182.318 148.151 169.763 154.798 159.424 169.568Z" fill="#5B4636" stroke="#2C2A26" stroke-width="2.8" stroke-linejoin="round"/>
<path opacity="0.5" d="M184.903 188.955C188.268 188.955 190.996 186.227 190.996 182.862C190.996 179.497 188.268 176.769 184.903 176.769C181.538 176.769 178.811 179.497 178.811 182.862C178.811 186.227 181.538 188.955 184.903 188.955Z" fill="#F4A259"/>
<path opacity="0.5" d="M209.274 188.955C212.639 188.955 215.367 186.227 215.367 182.862C215.367 179.497 212.639 176.769 209.274 176.769C205.91 176.769 203.182 179.497 203.182 182.862C203.182 186.227 205.91 188.955 209.274 188.955Z" fill="#F4A259"/>
<path d="M186.011 170.676C187.846 170.676 189.334 169.188 189.334 167.353C189.334 165.517 187.846 164.03 186.011 164.03C184.175 164.03 182.688 165.517 182.688 167.353C182.688 169.188 184.175 170.676 186.011 170.676Z" fill="#2C2A26"/>
<path d="M208.167 170.676C210.002 170.676 211.49 169.188 211.49 167.353C211.49 165.517 210.002 164.03 208.167 164.03C206.331 164.03 204.843 165.517 204.843 167.353C204.843 169.188 206.331 170.676 208.167 170.676Z" fill="#2C2A26"/>
<path d="M179.364 158.491C183.057 155.536 187.119 155.536 191.55 158.491M202.628 158.491C206.321 155.536 210.382 155.536 214.814 158.491" stroke="#2C2A26" stroke-width="2.4" stroke-linecap="round"/>
<path d="M184.903 182.862C193.027 190.986 201.151 190.986 209.275 182.862" stroke="#2C2A26" stroke-width="3" stroke-linecap="round"/>
<path d="M134.59 190.663L84.2591 198.635C75.7991 199.975 70.0271 207.919 71.3671 216.379L84.5376 299.535C85.8776 307.995 93.8219 313.767 102.282 312.427L152.613 304.455C161.073 303.115 166.845 295.171 165.505 286.711L152.334 203.555C150.994 195.095 143.05 189.323 134.59 190.663Z" fill="#FFFDF8" stroke="#2C2A26" stroke-width="3.2"/>
<path d="M119.129 255.922C131.215 254.007 139.461 242.658 137.547 230.573C135.632 218.487 124.283 210.241 112.198 212.155C100.112 214.07 91.8662 225.419 93.7804 237.504C95.6946 249.59 107.044 257.836 119.129 255.922Z" fill="#235B3E" stroke="#2C2A26" stroke-width="2.8"/>
<path d="M105.816 235.598L113.594 242.218L124.297 224.82" stroke="#FFFDF8" stroke-width="3.4" stroke-linecap="round" stroke-linejoin="round"/>
<path d="M140.903 265.932L101.514 272.171C99.7011 272.458 98.4642 274.16 98.7513 275.973C99.0385 277.786 100.741 279.023 102.554 278.736L141.943 272.497C143.756 272.21 144.993 270.508 144.706 268.695C144.419 266.882 142.716 265.645 140.903 265.932Z" fill="#E6DCC4"/>
<path d="M136.418 280.102L110.158 284.261C108.346 284.548 107.109 286.25 107.396 288.063C107.683 289.876 109.385 291.113 111.198 290.826L137.458 286.667C139.271 286.38 140.508 284.677 140.22 282.864C139.933 281.051 138.231 279.815 136.418 280.102Z" fill="#E6DCC4"/>
<path d="M53.0763 78.7296L57.5075 90.9153L69.6932 95.3465L57.5075 99.7777L53.0763 111.963L48.6452 99.7777L36.4595 95.3465L48.6452 90.9153L53.0763 78.7296ZM374.336 233.82L377.659 242.683L386.522 246.006L377.659 249.329L374.336 258.192L371.012 249.329L362.15 246.006L371.012 242.683L374.336 233.82Z" fill="#F4A259" stroke="#2C2A26" stroke-width="1.8" stroke-linejoin="round"/>
<path d="M395.134 62.2295H260.978C250.931 62.2295 242.787 70.0009 242.787 79.5874V105.624C242.787 115.211 250.931 122.982 260.978 122.982H395.134C405.181 122.982 413.325 115.211 413.325 105.624V79.5874C413.325 70.0009 405.181 62.2295 395.134 62.2295Z" fill="#FFFDF8" stroke="#2C2A26" stroke-width="3"/>
<path d="M276.443 124.136L271.099 147.852L295.193 124.012L276.443 124.136Z" fill="#FFFDF8" stroke="#2C2A26" stroke-width="3" stroke-linejoin="round"/>
<path d="M266.965 100.691C267.19 100.691 267.381 100.682 267.537 100.665C267.71 100.648 267.875 100.63 268.031 100.613C268.187 100.596 268.351 100.578 268.525 100.561C268.698 100.544 268.915 100.535 269.175 100.535C269.833 100.535 270.336 100.57 270.683 100.639C271.029 100.708 271.203 100.951 271.203 101.367C271.203 101.592 271.159 101.818 271.073 102.043C271.003 102.286 270.951 102.476 270.917 102.615C270.674 102.684 270.414 102.736 270.137 102.771C269.877 102.823 269.617 102.866 269.357 102.901C269.097 102.936 268.854 102.962 268.629 102.979C268.403 103.014 268.221 103.048 268.083 103.083C267.961 103.066 267.797 103.057 267.589 103.057C267.398 103.057 267.181 103.057 266.939 103.057C266.921 103.23 266.913 103.404 266.913 103.577C266.913 103.768 266.913 103.958 266.913 104.149C266.913 104.34 266.913 104.513 266.913 104.669C266.913 104.842 266.921 104.99 266.939 105.111C267.181 105.128 267.441 105.163 267.719 105.215C268.013 105.267 268.343 105.293 268.707 105.293C268.915 105.293 269.123 105.284 269.331 105.267C269.539 105.25 269.738 105.241 269.929 105.241C269.998 105.241 270.067 105.241 270.137 105.241C270.206 105.241 270.275 105.25 270.345 105.267C270.483 105.25 270.691 105.215 270.969 105.163C271.246 105.128 271.48 105.111 271.671 105.111C271.809 105.18 271.983 105.328 272.191 105.553C272.399 105.778 272.503 106.012 272.503 106.255C272.503 106.584 272.312 106.948 271.931 107.347C271.497 107.382 271.081 107.46 270.683 107.581C270.284 107.72 269.851 107.789 269.383 107.789C268.932 107.789 268.403 107.728 267.797 107.607C267.71 107.642 267.589 107.659 267.433 107.659C267.259 107.659 267.077 107.642 266.887 107.607C266.713 107.572 266.531 107.538 266.341 107.503C266.306 107.52 266.254 107.529 266.185 107.529C266.011 107.529 265.812 107.486 265.587 107.399C265.379 107.312 265.162 107.217 264.937 107.113C264.815 106.87 264.711 106.645 264.625 106.437C264.555 106.229 264.521 106.03 264.521 105.839C264.521 105.284 264.547 104.582 264.599 103.733C264.668 102.884 264.703 102.069 264.703 101.289C264.703 101.081 264.685 100.899 264.651 100.743C264.616 100.57 264.599 100.353 264.599 100.093C264.599 99.833 264.616 99.5643 264.651 99.287C264.685 99.0096 264.729 98.7496 264.781 98.507C264.833 98.2643 264.885 98.0476 264.937 97.857C264.989 97.6663 265.032 97.545 265.067 97.493C265.361 97.3543 265.691 97.2676 266.055 97.233C266.436 97.181 266.739 97.0943 266.965 96.973C267.19 96.973 267.363 96.9643 267.485 96.947C267.623 96.9296 267.736 96.9123 267.823 96.895C267.909 96.8776 267.979 96.8603 268.031 96.843C268.1 96.8083 268.178 96.7823 268.265 96.765C268.317 96.7823 268.377 96.7996 268.447 96.817C268.516 96.817 268.603 96.817 268.707 96.817C268.88 96.817 269.062 96.8083 269.253 96.791C269.461 96.7736 269.651 96.7563 269.825 96.739C270.015 96.7216 270.171 96.7043 270.293 96.687C270.431 96.6696 270.509 96.661 270.527 96.661C271.099 96.6956 271.385 97.1723 271.385 98.091C271.385 98.5416 271.307 98.819 271.151 98.923C270.995 99.027 270.683 99.0963 270.215 99.131C269.677 99.1656 269.175 99.2176 268.707 99.287C268.239 99.339 267.701 99.4083 267.095 99.495C267.077 99.651 267.051 99.833 267.017 100.041C266.999 100.232 266.982 100.448 266.965 100.691ZM267.615 87.743C267.667 88.003 267.693 88.2456 267.693 88.471C267.693 88.8523 267.632 89.199 267.511 89.511C267.389 89.823 267.242 90.1263 267.069 90.421C266.913 90.6983 266.748 90.9843 266.575 91.279C266.401 91.5736 266.263 91.8856 266.159 92.215C266.107 92.2496 266.037 92.319 265.951 92.423C265.881 92.5096 265.803 92.6136 265.717 92.735C265.647 92.839 265.578 92.943 265.509 93.047C265.457 93.1336 265.422 93.1943 265.405 93.229C265.318 93.4543 265.145 93.7143 264.885 94.009C264.625 94.2863 264.417 94.5376 264.261 94.763C263.983 94.8323 263.715 94.867 263.455 94.867C263.056 94.867 262.796 94.7283 262.675 94.451C262.553 94.1736 262.441 93.8616 262.337 93.515C262.527 93.2376 262.692 93.0123 262.831 92.839C262.969 92.6483 263.082 92.4836 263.169 92.345C263.273 92.189 263.359 92.0503 263.429 91.929C263.498 91.8076 263.576 91.6603 263.663 91.487C264.044 91.1056 264.339 90.707 264.547 90.291C264.772 89.8576 264.911 89.537 264.963 89.329C264.807 89.2943 264.607 89.2596 264.365 89.225C264.139 89.173 263.94 89.147 263.767 89.147H263.663C263.455 89.0776 263.247 89.043 263.039 89.043H262.571C262.328 89.043 262.077 89.017 261.817 88.965C261.557 88.8956 261.227 88.8176 260.829 88.731C260.638 88.4016 260.543 88.107 260.543 87.847C260.543 87.691 260.577 87.5436 260.647 87.405C260.733 87.249 260.829 87.119 260.933 87.015C261.037 86.8936 261.141 86.7983 261.245 86.729C261.349 86.6423 261.427 86.5903 261.479 86.573C262.085 86.573 262.579 86.5903 262.961 86.625C263.359 86.6423 263.697 86.677 263.975 86.729C264.269 86.781 264.529 86.833 264.755 86.885C264.98 86.937 265.24 86.989 265.535 87.041H265.717C266.046 87.041 266.367 87.1103 266.679 87.249C267.008 87.3876 267.32 87.5523 267.615 87.743ZM278.873 92.007L277.391 92.293C277.148 92.345 276.923 92.3796 276.715 92.397C276.524 92.4143 276.351 92.423 276.195 92.423H276.013L274.999 92.527C274.756 92.5616 274.531 92.579 274.323 92.579C274.115 92.579 273.924 92.5963 273.751 92.631C273.733 93.1163 273.707 93.567 273.673 93.983C273.638 94.3816 273.569 94.737 273.465 95.049C273.361 95.3436 273.205 95.5776 272.997 95.751C272.806 95.907 272.555 95.985 272.243 95.985C271.913 95.985 271.627 95.933 271.385 95.829C271.159 95.725 271.047 95.4996 271.047 95.153C271.047 95.0663 271.047 94.9623 271.047 94.841C271.064 94.7196 271.081 94.5896 271.099 94.451L271.281 93.281C271.281 93.2463 271.272 93.203 271.255 93.151C271.255 93.099 271.255 93.047 271.255 92.995C271.255 92.891 271.255 92.7523 271.255 92.579C271.272 92.4056 271.281 92.2323 271.281 92.059C271.298 91.8856 271.307 91.7296 271.307 91.591C271.324 91.4523 271.333 91.357 271.333 91.305V91.201C271.315 90.9583 271.315 90.681 271.333 90.369C271.367 90.057 271.385 89.7883 271.385 89.563C271.385 89.2683 271.359 88.9216 271.307 88.523C271.255 88.107 271.159 87.5696 271.021 86.911L270.865 86.183C270.83 86.0963 270.804 86.0096 270.787 85.923C270.769 85.8363 270.761 85.7496 270.761 85.663C270.761 85.3683 270.882 85.1343 271.125 84.961C271.367 84.7876 271.705 84.701 272.139 84.701C272.329 84.701 272.494 84.7183 272.633 84.753C272.771 84.7703 272.893 84.8396 272.997 84.961C273.101 85.065 273.187 85.2296 273.257 85.455C273.343 85.6803 273.421 85.9836 273.491 86.365L273.725 87.639C273.725 87.7603 273.733 87.951 273.751 88.211C273.785 88.4536 273.803 88.6876 273.803 88.913C273.803 89.0863 273.794 89.199 273.777 89.251C273.811 89.3376 273.829 89.433 273.829 89.537C273.829 89.6236 273.829 89.719 273.829 89.823V90.213C274.089 90.213 274.323 90.2043 274.531 90.187C274.739 90.1523 274.947 90.1176 275.155 90.083C275.363 90.031 275.571 89.9963 275.779 89.979C276.004 89.9443 276.255 89.927 276.533 89.927C276.585 89.927 276.628 89.9356 276.663 89.953C276.715 89.953 276.758 89.953 276.793 89.953C276.931 89.9183 277.113 89.8923 277.339 89.875C277.564 89.8403 277.789 89.823 278.015 89.823C278.136 89.823 278.275 89.8316 278.431 89.849C278.604 89.8663 278.76 89.927 278.899 90.031C279.055 90.1176 279.176 90.2563 279.263 90.447C279.367 90.6203 279.419 90.8716 279.419 91.201C279.419 91.5303 279.237 91.799 278.873 92.007ZM296.223 93.723C296.258 93.8096 296.275 93.8963 296.275 93.983C296.275 94.0696 296.275 94.165 296.275 94.269C296.275 94.3556 296.275 94.451 296.275 94.555C296.275 94.6416 296.266 94.737 296.249 94.841L296.119 95.829V96.115C296.119 96.9643 296.015 97.623 295.807 98.091C295.616 98.5416 295.322 98.767 294.923 98.767C294.524 98.767 294.221 98.6543 294.013 98.429C293.822 98.2036 293.727 97.9523 293.727 97.675C293.727 97.3976 293.736 97.181 293.753 97.025C293.788 96.8516 293.814 96.661 293.831 96.453C293.866 96.245 293.892 95.9763 293.909 95.647C293.944 95.3176 293.961 94.8583 293.961 94.269C293.961 94.1303 293.952 94.0263 293.935 93.957C293.935 93.8703 293.926 93.7836 293.909 93.697C293.892 93.593 293.874 93.4716 293.857 93.333C293.857 93.1943 293.857 92.995 293.857 92.735C293.857 92.579 293.866 92.4403 293.883 92.319C293.9 92.1803 293.926 92.059 293.961 91.955C293.892 91.7123 293.857 91.4176 293.857 91.071C293.857 90.707 293.822 90.4556 293.753 90.317C293.736 90.1263 293.718 89.9183 293.701 89.693C293.684 89.4503 293.675 89.2336 293.675 89.043C293.675 88.679 293.796 88.4276 294.039 88.289C294.282 88.133 294.594 88.055 294.975 88.055C295.374 88.055 295.677 88.1936 295.885 88.471C295.937 88.8696 295.998 89.277 296.067 89.693C296.154 90.0916 296.197 90.447 296.197 90.759C296.197 90.915 296.188 91.0276 296.171 91.097C296.206 91.2876 296.232 91.487 296.249 91.695C296.266 91.8856 296.275 92.085 296.275 92.293C296.275 92.553 296.266 92.813 296.249 93.073C296.232 93.3156 296.223 93.5323 296.223 93.723ZM288.943 92.839C288.891 93.151 288.848 93.4456 288.813 93.723C288.778 93.983 288.726 94.2256 288.657 94.451C288.588 94.6763 288.492 94.9016 288.371 95.127C288.25 95.335 288.085 95.543 287.877 95.751L286.993 96.219C286.733 96.3576 286.551 96.453 286.447 96.505C286.36 96.557 286.3 96.5916 286.265 96.609C286.248 96.6263 286.23 96.635 286.213 96.635C286.213 96.6176 286.17 96.609 286.083 96.609C285.979 96.609 285.832 96.6003 285.641 96.583C285.468 96.5483 285.286 96.5136 285.095 96.479C284.922 96.4443 284.766 96.4183 284.627 96.401C284.488 96.3663 284.41 96.349 284.393 96.349H284.341C284.133 96.3316 283.778 96.1496 283.275 95.803C282.859 95.5256 282.556 95.3003 282.365 95.127C282.192 94.9363 282.07 94.7543 282.001 94.581C281.932 94.3903 281.88 94.1823 281.845 93.957C281.828 93.7316 281.767 93.4283 281.663 93.047C281.75 92.8736 281.828 92.631 281.897 92.319C281.966 91.9896 282.044 91.721 282.131 91.513C282.166 91.4263 282.261 91.305 282.417 91.149C282.573 90.993 282.755 90.8283 282.963 90.655C283.188 90.4643 283.414 90.2823 283.639 90.109C283.882 89.9356 284.098 89.7796 284.289 89.641C284.982 89.6756 285.624 89.7363 286.213 89.823C286.802 89.8923 287.288 90.0743 287.669 90.369C287.773 90.4556 287.886 90.6203 288.007 90.863C288.146 91.0883 288.276 91.331 288.397 91.591C288.536 91.851 288.648 92.1023 288.735 92.345C288.839 92.5703 288.908 92.735 288.943 92.839ZM286.343 93.905C286.412 93.697 286.447 93.5236 286.447 93.385C286.447 93.2983 286.421 93.1336 286.369 92.891C286.334 92.631 286.23 92.4056 286.057 92.215C285.537 92.0416 285.13 91.955 284.835 91.955C284.748 91.9896 284.662 92.0416 284.575 92.111C284.488 92.1803 284.41 92.293 284.341 92.449L284.107 93.073V93.125C284.107 93.177 284.133 93.2723 284.185 93.411C284.237 93.5323 284.315 93.671 284.419 93.827C284.54 93.9656 284.688 94.087 284.861 94.191C285.034 94.295 285.242 94.347 285.485 94.347C285.641 94.347 285.806 94.321 285.979 94.269C286.17 94.217 286.291 94.0956 286.343 93.905ZM317.551 93.723C317.586 93.8096 317.603 93.8963 317.603 93.983C317.603 94.0696 317.603 94.165 317.603 94.269C317.603 94.3556 317.603 94.451 317.603 94.555C317.603 94.6416 317.594 94.737 317.577 94.841L317.447 95.829V96.115C317.447 96.9643 317.343 97.623 317.135 98.091C316.944 98.5416 316.65 98.767 316.251 98.767C315.852 98.767 315.549 98.6543 315.341 98.429C315.15 98.2036 315.055 97.9523 315.055 97.675C315.055 97.3976 315.064 97.181 315.081 97.025C315.116 96.8516 315.142 96.661 315.159 96.453C315.194 96.245 315.22 95.9763 315.237 95.647C315.272 95.3176 315.289 94.8583 315.289 94.269C315.289 94.1303 315.28 94.0263 315.263 93.957C315.263 93.8703 315.254 93.7836 315.237 93.697C315.22 93.593 315.202 93.4716 315.185 93.333C315.185 93.1943 315.185 92.995 315.185 92.735C315.185 92.579 315.194 92.4403 315.211 92.319C315.228 92.1803 315.254 92.059 315.289 91.955C315.22 91.7123 315.185 91.4176 315.185 91.071C315.185 90.707 315.15 90.4556 315.081 90.317C315.064 90.109 315.046 89.875 315.029 89.615C315.029 89.355 315.029 89.121 315.029 88.913C315.029 88.601 315.15 88.3843 315.393 88.263C315.653 88.1243 315.956 88.055 316.303 88.055C316.702 88.055 317.005 88.1936 317.213 88.471C317.3 88.8696 317.369 89.2683 317.421 89.667C317.49 90.0483 317.525 90.395 317.525 90.707C317.525 90.8803 317.516 91.0103 317.499 91.097C317.534 91.2876 317.56 91.487 317.577 91.695C317.594 91.8856 317.603 92.085 317.603 92.293C317.603 92.553 317.594 92.813 317.577 93.073C317.56 93.3156 317.551 93.5323 317.551 93.723ZM311.129 94.529C311.164 94.6676 311.181 94.763 311.181 94.815C311.181 94.9536 311.138 95.101 311.051 95.257C310.964 95.3956 310.86 95.5343 310.739 95.673C310.618 95.7943 310.496 95.8983 310.375 95.985C310.271 96.0716 310.193 96.1236 310.141 96.141C309.829 96.1063 309.56 95.9936 309.335 95.803C309.127 95.6123 308.902 95.4216 308.659 95.231C308.52 95.0923 308.373 94.9276 308.217 94.737C308.061 94.5463 307.862 94.3643 307.619 94.191C307.55 94.1563 307.498 94.1303 307.463 94.113C307.428 94.0956 307.368 94.035 307.281 93.931C307.194 94.0523 307.099 94.191 306.995 94.347C306.908 94.4856 306.848 94.607 306.813 94.711C306.692 94.7803 306.562 94.8843 306.423 95.023C306.302 95.1443 306.232 95.2916 306.215 95.465C305.886 95.933 305.652 96.271 305.513 96.479C305.374 96.687 305.166 96.791 304.889 96.791C304.716 96.791 304.551 96.7476 304.395 96.661C304.239 96.5743 304.1 96.4703 303.979 96.349C303.858 96.2276 303.754 96.115 303.667 96.011C303.598 95.907 303.563 95.829 303.563 95.777C303.598 95.4476 303.676 95.153 303.797 94.893C303.936 94.633 304.092 94.3816 304.265 94.139C304.456 93.8963 304.655 93.6536 304.863 93.411C305.071 93.151 305.279 92.8563 305.487 92.527C305.608 92.3363 305.695 92.2063 305.747 92.137C305.816 92.0503 305.886 91.9723 305.955 91.903C306.042 91.8163 306.137 91.7036 306.241 91.565C306.345 91.4263 306.492 91.2096 306.683 90.915C306.856 90.655 306.986 90.4556 307.073 90.317C307.16 90.1783 307.238 90.0743 307.307 90.005C307.394 89.9356 307.48 89.901 307.567 89.901C307.671 89.8836 307.827 89.875 308.035 89.875C308.382 89.875 308.659 89.9443 308.867 90.083C309.092 90.2043 309.274 90.421 309.413 90.733C309.396 90.9063 309.309 91.1403 309.153 91.435C309.014 91.7296 308.884 91.9636 308.763 92.137C308.85 92.2236 308.928 92.319 308.997 92.423C309.084 92.5096 309.205 92.6136 309.361 92.735C309.5 92.9776 309.647 93.151 309.803 93.255C309.959 93.359 310.106 93.4543 310.245 93.541C310.401 93.6276 310.548 93.7403 310.687 93.879C310.843 94.0176 310.99 94.2343 311.129 94.529ZM343.637 91.981L342.155 92.267C341.912 92.3016 341.687 92.3363 341.479 92.371C341.271 92.3883 341.098 92.397 340.959 92.397H340.777L339.763 92.501C339.503 92.5356 339.269 92.553 339.061 92.553C338.853 92.553 338.671 92.5703 338.515 92.605C338.48 93.0903 338.446 93.541 338.411 93.957C338.376 94.3556 338.307 94.711 338.203 95.023C338.116 95.3176 337.978 95.5516 337.787 95.725C337.596 95.881 337.336 95.959 337.007 95.959C336.678 95.959 336.392 95.907 336.149 95.803C335.924 95.699 335.811 95.4736 335.811 95.127C335.811 95.0056 335.82 94.8583 335.837 94.685C335.854 94.5116 335.872 94.3383 335.889 94.165C335.906 93.9743 335.924 93.801 335.941 93.645C335.976 93.489 336.002 93.359 336.019 93.255C336.019 93.2203 336.01 93.177 335.993 93.125C335.993 93.073 335.993 93.021 335.993 92.969C335.993 92.865 335.993 92.7263 335.993 92.553C336.01 92.3796 336.019 92.2063 336.019 92.033C336.036 91.8596 336.045 91.7036 336.045 91.565C336.062 91.4263 336.071 91.331 336.071 91.279V91.175C336.071 90.9323 336.071 90.655 336.071 90.343C336.088 90.031 336.106 89.771 336.123 89.563C336.123 89.511 336.114 89.4156 336.097 89.277C336.08 89.1383 336.062 88.991 336.045 88.835C336.028 88.6616 336.01 88.4883 335.993 88.315C335.976 88.1243 335.967 87.951 335.967 87.795L335.629 86.183C335.594 86.0963 335.568 86.0096 335.551 85.923C335.534 85.8363 335.525 85.7496 335.525 85.663C335.525 85.039 335.976 84.727 336.877 84.727C337.068 84.727 337.232 84.7443 337.371 84.779C337.527 84.7963 337.657 84.857 337.761 84.961C337.865 85.065 337.952 85.2296 338.021 85.455C338.108 85.6803 338.177 85.9836 338.229 86.365C338.281 86.729 338.324 87.015 338.359 87.223C338.411 87.4136 338.446 87.587 338.463 87.743C338.498 87.899 338.524 88.0636 338.541 88.237C338.558 88.393 338.567 88.6096 338.567 88.887C338.567 89.0603 338.558 89.173 338.541 89.225C338.576 89.3116 338.593 89.3983 338.593 89.485C338.593 89.5716 338.593 89.6756 338.593 89.797V90.213C338.853 90.213 339.087 90.2043 339.295 90.187C339.503 90.1523 339.711 90.1176 339.919 90.083C340.127 90.031 340.344 89.9963 340.569 89.979C340.794 89.9443 341.046 89.927 341.323 89.927H341.557C341.696 89.8923 341.878 89.8663 342.103 89.849C342.328 89.8143 342.554 89.797 342.779 89.797C342.9 89.797 343.039 89.8143 343.195 89.849C343.368 89.8663 343.524 89.9183 343.663 90.005C343.819 90.0916 343.94 90.2303 344.027 90.421C344.131 90.6116 344.183 90.8716 344.183 91.201C344.183 91.513 344.001 91.773 343.637 91.981ZM333.159 91.851C333.211 91.9896 333.237 92.1023 333.237 92.189C333.237 92.3276 333.194 92.4663 333.107 92.605C333.02 92.7436 332.916 92.8736 332.795 92.995C332.691 93.099 332.578 93.1943 332.457 93.281C332.353 93.3676 332.275 93.4196 332.223 93.437C331.911 93.4023 331.642 93.2896 331.417 93.099C331.209 92.9083 330.984 92.7176 330.741 92.527C330.602 92.4056 330.507 92.2756 330.455 92.137C330.403 91.981 330.256 91.8163 330.013 91.643C329.926 91.591 329.866 91.5563 329.831 91.539C329.796 91.5216 329.736 91.461 329.649 91.357C329.58 91.4783 329.493 91.6083 329.389 91.747C329.302 91.8856 329.242 92.007 329.207 92.111C329.138 92.1456 329.042 92.2236 328.921 92.345C328.817 92.4663 328.704 92.605 328.583 92.761C328.479 92.8996 328.384 93.0383 328.297 93.177C328.21 93.3156 328.158 93.4283 328.141 93.515C327.794 94.0003 327.526 94.3556 327.335 94.581C327.162 94.8063 326.945 94.919 326.685 94.919C326.529 94.919 326.364 94.8756 326.191 94.789C326.035 94.7023 325.896 94.5983 325.775 94.477C325.654 94.3556 325.55 94.243 325.463 94.139C325.376 94.0176 325.333 93.931 325.333 93.879C325.368 93.567 325.498 93.229 325.723 92.865C325.948 92.501 326.156 92.1803 326.347 91.903L327.751 89.771C327.855 89.6843 327.985 89.5456 328.141 89.355C328.297 89.147 328.453 88.9476 328.609 88.757C328.47 88.7223 328.323 88.6963 328.167 88.679C328.028 88.6443 327.89 88.627 327.751 88.627H327.647C327.439 88.5576 327.231 88.523 327.023 88.523H326.555C326.312 88.523 326.061 88.497 325.801 88.445C325.541 88.3756 325.212 88.2976 324.813 88.211C324.622 87.8816 324.527 87.587 324.527 87.327C324.527 87.171 324.562 87.0236 324.631 86.885C324.718 86.729 324.813 86.599 324.917 86.495C325.021 86.3736 325.125 86.2783 325.229 86.209C325.333 86.1223 325.411 86.0703 325.463 86.053C326.087 86.053 326.59 86.0703 326.971 86.105C327.37 86.1396 327.708 86.183 327.985 86.235C328.262 86.2696 328.514 86.3216 328.739 86.391C328.982 86.443 329.25 86.495 329.545 86.547H329.753C330.065 86.547 330.377 86.6163 330.689 86.755C331.001 86.8936 331.296 87.0583 331.573 87.249C331.642 87.4743 331.677 87.7083 331.677 87.951C331.677 88.3323 331.616 88.6356 331.495 88.861C331.374 89.069 331.235 89.303 331.079 89.563C331.166 89.6496 331.261 89.745 331.365 89.849C331.469 89.9356 331.599 90.0396 331.755 90.161C331.963 90.4556 332.128 90.655 332.249 90.759C332.37 90.863 332.474 90.9496 332.561 91.019C332.648 91.0883 332.734 91.175 332.821 91.279C332.908 91.3656 333.02 91.5563 333.159 91.851ZM336.383 99.183C336.383 99.2523 336.383 99.3216 336.383 99.391C336.4 99.4603 336.409 99.5383 336.409 99.625C336.409 99.937 336.4 100.223 336.383 100.483C336.366 100.726 336.331 100.968 336.279 101.211C336.244 101.454 336.192 101.696 336.123 101.939C336.071 102.182 335.993 102.459 335.889 102.771C335.802 103.031 335.733 103.256 335.681 103.447C335.646 103.638 335.586 103.794 335.499 103.915C335.412 104.054 335.282 104.149 335.109 104.201C334.953 104.27 334.728 104.305 334.433 104.305C334.069 104.305 333.696 104.149 333.315 103.837C333.315 103.334 333.376 102.858 333.497 102.407C333.636 101.974 333.705 101.584 333.705 101.237V101.029C333.722 100.96 333.74 100.856 333.757 100.717C333.774 100.578 333.792 100.431 333.809 100.275C333.826 100.102 333.844 99.937 333.861 99.781C333.878 99.6076 333.887 99.469 333.887 99.365C333.696 99.3303 333.488 99.3043 333.263 99.287C333.038 99.2523 332.812 99.235 332.587 99.235H332.379H332.119C331.928 99.235 331.729 99.2436 331.521 99.261C331.313 99.261 331.166 99.2783 331.079 99.313C330.992 99.313 330.914 99.313 330.845 99.313C330.793 99.2956 330.732 99.287 330.663 99.287C330.403 99.287 330.178 99.3043 329.987 99.339C329.796 99.3736 329.623 99.391 329.467 99.391C329.328 99.3216 329.155 99.183 328.947 98.975C328.739 98.7496 328.635 98.5243 328.635 98.299C328.635 98.0043 328.834 97.6316 329.233 97.181C329.389 97.1636 329.519 97.1463 329.623 97.129C329.727 97.0943 329.831 97.0683 329.935 97.051C330.056 97.0163 330.186 96.9903 330.325 96.973C330.464 96.9556 330.637 96.9296 330.845 96.895C330.897 96.9123 330.992 96.921 331.131 96.921C331.304 96.921 331.486 96.9123 331.677 96.895C331.868 96.8603 332.067 96.843 332.275 96.843C332.362 96.843 332.457 96.843 332.561 96.843C332.665 96.843 332.76 96.8603 332.847 96.895C333.02 96.8603 333.168 96.843 333.289 96.843C333.688 96.843 334.147 96.8776 334.667 96.947C335.204 97.0163 335.698 97.155 336.149 97.363C336.374 97.7963 336.487 98.169 336.487 98.481C336.487 98.7236 336.452 98.9576 336.383 99.183ZM349.495 94.633C349.495 94.581 349.461 94.4423 349.391 94.217C349.322 93.9743 349.209 93.8096 349.053 93.723C348.845 93.723 348.507 93.8096 348.039 93.983C347.935 94.2083 347.866 94.3903 347.831 94.529C347.797 94.6503 347.779 94.737 347.779 94.789C347.779 94.893 347.831 95.049 347.935 95.257C348.039 95.4476 348.204 95.543 348.429 95.543C348.62 95.543 348.776 95.4996 348.897 95.413C349.036 95.3263 349.149 95.2223 349.235 95.101C349.339 94.9623 349.426 94.8063 349.495 94.633ZM349.859 89.563C349.582 89.355 349.279 89.1556 348.949 88.965C348.62 88.757 348.421 88.6183 348.351 88.549C348.213 88.3583 347.97 88.1936 347.623 88.055C347.294 87.9336 347.077 87.7776 346.973 87.587C346.887 87.3963 346.843 87.2056 346.843 87.015C346.843 86.7203 346.93 86.417 347.103 86.105C347.294 85.7756 347.563 85.611 347.909 85.611C348.065 85.611 348.256 85.6543 348.481 85.741L349.183 86.183C349.773 86.5296 350.223 86.8416 350.535 87.119C350.865 87.3963 351.107 87.6303 351.263 87.821C351.419 88.0116 351.506 88.159 351.523 88.263C351.558 88.367 351.575 88.4276 351.575 88.445C351.575 88.8436 351.298 89.2336 350.743 89.615C350.969 89.6496 351.203 89.693 351.445 89.745C351.705 89.797 351.939 89.8576 352.147 89.927C352.373 89.9963 352.555 90.083 352.693 90.187C352.849 90.291 352.927 90.4036 352.927 90.525C352.927 90.785 352.875 91.0363 352.771 91.279C352.667 91.5216 352.563 91.7383 352.459 91.929C352.199 91.9983 351.879 92.033 351.497 92.033C351.203 92.033 350.899 92.0156 350.587 91.981C350.275 91.929 349.981 91.8856 349.703 91.851C350.05 92.0936 350.388 92.3536 350.717 92.631C351.064 92.9083 351.263 93.125 351.315 93.281C351.402 93.437 351.471 93.645 351.523 93.905C351.575 94.1476 351.662 94.3556 351.783 94.529C351.593 95.0316 351.489 95.3696 351.471 95.543C351.454 95.6123 351.376 95.7423 351.237 95.933C351.116 96.1063 350.951 96.297 350.743 96.505C350.553 96.713 350.336 96.9036 350.093 97.077C349.851 97.233 349.599 97.3283 349.339 97.363H349.287C349.27 97.363 349.201 97.3716 349.079 97.389C348.975 97.4063 348.845 97.4323 348.689 97.467C348.551 97.4843 348.403 97.5016 348.247 97.519C348.109 97.5363 347.996 97.545 347.909 97.545C347.753 97.545 347.675 97.5276 347.675 97.493C347.155 97.285 346.757 97.077 346.479 96.869C346.202 96.661 345.994 96.4356 345.855 96.193C345.734 95.9503 345.647 95.6816 345.595 95.387C345.561 95.0923 345.517 94.763 345.465 94.399C345.621 93.8096 345.812 93.3416 346.037 92.995C346.263 92.631 346.514 92.3623 346.791 92.189C347.086 91.9983 347.407 91.877 347.753 91.825C348.1 91.773 348.473 91.7383 348.871 91.721C348.542 91.6343 348.256 91.5823 348.013 91.565C347.788 91.5476 347.528 91.539 347.233 91.539H346.557C345.673 91.539 344.98 91.4696 344.477 91.331C343.992 91.1923 343.749 90.8716 343.749 90.369C343.749 90.161 343.819 89.9616 343.957 89.771C344.079 89.5976 344.174 89.4676 344.243 89.381C344.313 89.277 344.391 89.199 344.477 89.147C344.581 89.095 344.72 89.069 344.893 89.069C345.084 89.0516 345.361 89.043 345.725 89.043H346.089C346.627 89.1296 347.069 89.1903 347.415 89.225C347.762 89.2596 348.065 89.2943 348.325 89.329C348.585 89.3636 348.828 89.3983 349.053 89.433C349.296 89.4676 349.565 89.511 349.859 89.563ZM363.249 93.957C363.267 94.0436 363.275 94.1303 363.275 94.217C363.293 94.2863 363.301 94.373 363.301 94.477C363.301 94.581 363.293 94.6936 363.275 94.815C363.275 94.9363 363.267 95.0663 363.249 95.205L363.145 96.323C363.093 96.895 363.041 97.389 362.989 97.805C362.955 98.2036 362.894 98.533 362.807 98.793C362.721 99.053 362.608 99.2436 362.469 99.365C362.331 99.469 362.14 99.521 361.897 99.521C361.412 99.521 361.083 99.3996 360.909 99.157C360.736 98.9143 360.649 98.6543 360.649 98.377C360.649 98.0823 360.675 97.7616 360.727 97.415C360.797 97.051 360.831 96.739 360.831 96.479V96.271C360.831 96.2536 360.831 96.193 360.831 96.089C360.849 95.9676 360.857 95.829 360.857 95.673C360.857 95.4996 360.857 95.3176 360.857 95.127C360.857 94.9363 360.857 94.763 360.857 94.607H360.623L358.647 94.841C358.63 95.413 358.613 95.9503 358.595 96.453C358.578 96.9383 358.517 97.5103 358.413 98.169L358.257 99.157C358.171 99.365 358.041 99.5383 357.867 99.677C357.694 99.7983 357.469 99.859 357.191 99.859C356.931 99.859 356.663 99.8156 356.385 99.729C356.125 99.6423 355.995 99.4516 355.995 99.157C355.995 99.0356 356.004 98.8536 356.021 98.611C356.039 98.3683 356.056 98.1256 356.073 97.883C356.108 97.623 356.134 97.3803 356.151 97.155C356.186 96.9296 356.212 96.7736 356.229 96.687C356.229 96.6523 356.221 96.609 356.203 96.557C356.203 96.505 356.203 96.4443 356.203 96.375C356.203 96.2536 356.203 96.089 356.203 95.881C356.221 95.673 356.229 95.4563 356.229 95.231C356.247 95.0056 356.255 94.8063 356.255 94.633C356.273 94.4423 356.281 94.321 356.281 94.269V94.165C356.264 93.9223 356.264 93.645 356.281 93.333C356.316 93.021 356.333 92.761 356.333 92.553C356.333 92.2583 356.299 91.9116 356.229 91.513C356.177 91.097 356.091 90.577 355.969 89.953C355.935 89.6756 355.9 89.4676 355.865 89.329C355.831 89.1903 355.796 89.0863 355.761 89.017C355.744 88.9476 355.727 88.887 355.709 88.835C355.709 88.783 355.709 88.705 355.709 88.601C355.709 88.0463 356.108 87.769 356.905 87.769C357.339 87.769 357.703 87.925 357.997 88.237C358.188 88.757 358.353 89.3463 358.491 90.005C358.647 90.6463 358.725 91.331 358.725 92.059V92.449C359.089 92.449 359.41 92.4143 359.687 92.345C359.982 92.2756 360.372 92.2236 360.857 92.189C360.857 92.0503 360.866 91.955 360.883 91.903C360.779 91.5043 360.71 91.123 360.675 90.759C360.641 90.3776 360.623 90.0136 360.623 89.667C360.623 89.3203 360.745 89.0863 360.987 88.965C361.247 88.8263 361.577 88.757 361.975 88.757C362.391 88.757 362.703 88.887 362.911 89.147C362.963 89.5456 363.024 89.953 363.093 90.369C363.18 90.7676 363.223 91.1316 363.223 91.461C363.223 91.617 363.215 91.7296 363.197 91.799C363.267 92.1283 363.301 92.4663 363.301 92.813C363.301 93.0036 363.293 93.1943 363.275 93.385C363.258 93.5756 363.249 93.7663 363.249 93.957ZM378.883 89.589C378.901 89.6583 378.909 89.7623 378.909 89.901C378.909 90.0743 378.901 90.2563 378.883 90.447C378.866 90.6203 378.857 90.785 378.857 90.941V91.045C378.684 91.253 378.545 91.435 378.441 91.591C378.337 91.747 378.259 91.8683 378.207 91.955C378.173 92.0243 378.086 92.1196 377.947 92.241C377.809 92.3623 377.627 92.4836 377.401 92.605C377.176 92.7263 376.916 92.839 376.621 92.943C376.327 93.0296 376.015 93.073 375.685 93.073C375.599 93.073 375.503 93.0556 375.399 93.021C375.365 93.0036 375.261 92.9776 375.087 92.943C374.914 92.9083 374.723 92.8736 374.515 92.839C374.307 92.8043 374.117 92.7696 373.943 92.735C373.77 92.683 373.675 92.631 373.657 92.579C373.328 92.267 373.068 91.9983 372.877 91.773C372.704 91.5476 372.574 91.3483 372.487 91.175C372.401 90.9843 372.349 90.8196 372.331 90.681C372.314 90.525 372.305 90.3516 372.305 90.161C372.305 89.485 372.427 88.9303 372.669 88.497C372.929 88.0636 373.224 87.7256 373.553 87.483C373.883 87.223 374.203 87.0496 374.515 86.963C374.827 86.859 375.044 86.807 375.165 86.807C375.529 86.807 375.919 86.8676 376.335 86.989C376.751 87.093 377.193 87.2143 377.661 87.353C377.783 87.509 377.913 87.6996 378.051 87.925C378.19 88.1503 378.32 88.3756 378.441 88.601C378.563 88.809 378.667 89.0083 378.753 89.199C378.84 89.3723 378.883 89.5023 378.883 89.589ZM384.057 99.677C383.988 99.6943 383.841 99.703 383.615 99.703C383.425 99.703 383.217 99.703 382.991 99.703C382.783 99.6856 382.575 99.6683 382.367 99.651C382.159 99.6336 381.969 99.6163 381.795 99.599C381.622 99.5816 381.492 99.5643 381.405 99.547C381.353 99.547 381.293 99.5556 381.223 99.573C381.171 99.573 381.102 99.573 381.015 99.573C380.738 99.573 380.374 99.5556 379.923 99.521C379.49 99.469 379.074 99.443 378.675 99.443H377.999C377.982 99.443 377.835 99.443 377.557 99.443C377.297 99.4256 376.994 99.417 376.647 99.417C376.301 99.3996 375.963 99.3823 375.633 99.365C375.304 99.3476 375.079 99.3303 374.957 99.313C374.871 99.3303 374.689 99.3476 374.411 99.365C374.151 99.3823 373.865 99.3996 373.553 99.417C373.241 99.4343 372.947 99.4516 372.669 99.469C372.409 99.469 372.236 99.469 372.149 99.469C372.115 99.469 372.071 99.469 372.019 99.469C371.985 99.4516 371.924 99.443 371.837 99.443C371.716 99.443 371.543 99.4516 371.317 99.469C371.109 99.4863 370.91 99.495 370.719 99.495C370.546 99.495 370.39 99.495 370.251 99.495C370.113 99.4776 369.991 99.4603 369.887 99.443L368.431 99.521C367.599 99.521 367.045 99.443 366.767 99.287C366.507 99.1136 366.377 98.845 366.377 98.481C366.377 98.013 366.499 97.6836 366.741 97.493C366.984 97.285 367.383 97.181 367.937 97.181H368.405C369.064 97.181 369.515 97.155 369.757 97.103C369.827 97.0856 369.948 97.0856 370.121 97.103C370.295 97.1203 370.52 97.129 370.797 97.129H372.149C372.149 97.0076 372.141 96.895 372.123 96.791C372.106 96.687 372.089 96.583 372.071 96.479C372.054 96.3576 372.037 96.2103 372.019 96.037C372.002 95.8636 371.993 95.6383 371.993 95.361C371.993 94.9623 372.002 94.6243 372.019 94.347C372.037 94.0523 372.054 93.8356 372.071 93.697C372.141 93.593 372.305 93.463 372.565 93.307C372.843 93.1336 373.129 93.047 373.423 93.047C373.718 93.047 373.943 93.1943 374.099 93.489C374.255 93.7836 374.368 94.1216 374.437 94.503C374.507 94.867 374.541 95.231 374.541 95.595C374.559 95.959 374.567 96.2103 374.567 96.349V96.869V97.025H376.465C376.517 96.765 376.543 96.4876 376.543 96.193C376.543 96.1063 376.526 95.933 376.491 95.673C376.474 95.413 376.465 94.997 376.465 94.425C376.465 93.9916 376.535 93.6536 376.673 93.411C376.812 93.151 377.176 93.021 377.765 93.021C378.164 93.021 378.45 93.1423 378.623 93.385C378.797 93.6103 378.883 94.0436 378.883 94.685C378.883 95.1703 378.875 95.621 378.857 96.037C378.857 96.453 378.849 96.8083 378.831 97.103C379.611 97.1376 380.348 97.1636 381.041 97.181C381.752 97.181 382.367 97.2243 382.887 97.311C383.425 97.3803 383.841 97.5103 384.135 97.701C384.447 97.8916 384.603 98.1776 384.603 98.559C384.603 99.1136 384.421 99.4863 384.057 99.677ZM376.439 90.239C376.457 90.2216 376.465 90.1436 376.465 90.005C376.465 89.797 376.439 89.641 376.387 89.537C376.335 89.4156 376.266 89.3376 376.179 89.303C376.093 89.251 375.971 89.225 375.815 89.225C375.677 89.2076 375.521 89.1903 375.347 89.173C375.157 89.2076 375.009 89.3376 374.905 89.563C374.801 89.7883 374.741 90.0223 374.723 90.265C374.793 90.5076 374.923 90.655 375.113 90.707C375.304 90.759 375.443 90.785 375.529 90.785C375.807 90.785 376.023 90.707 376.179 90.551C376.335 90.395 376.422 90.291 376.439 90.239ZM393.893 87.769C393.911 87.8556 393.919 87.9423 393.919 88.029C393.937 88.0983 393.945 88.1676 393.945 88.237C393.945 88.341 393.919 88.4796 393.867 88.653C393.833 88.8263 393.789 89.017 393.737 89.225C393.685 89.433 393.633 89.641 393.581 89.849C393.529 90.057 393.495 90.239 393.477 90.395C393.339 90.5163 393.252 90.7936 393.217 91.227C393.217 91.3656 393.226 91.513 393.243 91.669C393.261 91.8076 393.269 91.9463 393.269 92.085C393.269 92.4316 393.209 92.7956 393.087 93.177C392.983 93.541 392.931 93.9223 392.931 94.321C392.931 94.3903 392.931 94.4596 392.931 94.529C392.931 94.5983 392.94 94.6676 392.957 94.737C392.905 95.3263 392.819 95.8376 392.697 96.271C392.576 96.7043 392.307 96.921 391.891 96.921C391.51 96.921 391.181 96.817 390.903 96.609C390.609 95.9156 390.461 95.3176 390.461 94.815C390.461 94.7803 390.461 94.7456 390.461 94.711C390.479 94.659 390.487 94.6156 390.487 94.581C390.47 94.3556 390.453 94.1476 390.435 93.957C390.435 93.7663 390.435 93.593 390.435 93.437C390.435 92.969 390.461 92.631 390.513 92.423C390.496 92.3363 390.487 92.2583 390.487 92.189C390.487 92.1196 390.487 92.0416 390.487 91.955C390.487 91.8336 390.496 91.6516 390.513 91.409C390.548 91.1663 390.583 90.915 390.617 90.655C390.669 90.3776 390.704 90.1176 390.721 89.875C390.756 89.6323 390.773 89.4416 390.773 89.303L391.085 88.315C391.155 88.055 391.224 87.847 391.293 87.691C391.38 87.535 391.475 87.4223 391.579 87.353C391.701 87.2663 391.831 87.2143 391.969 87.197C392.125 87.1796 392.316 87.171 392.541 87.171C393.235 87.171 393.685 87.3703 393.893 87.769ZM393.373 100.587C393.373 100.743 393.321 100.899 393.217 101.055C393.131 101.211 393.009 101.35 392.853 101.471C392.715 101.575 392.55 101.662 392.359 101.731C392.186 101.818 392.021 101.861 391.865 101.861C391.449 101.861 391.111 101.8 390.851 101.679C390.591 101.575 390.392 101.436 390.253 101.263C390.132 101.09 390.045 100.908 389.993 100.717C389.959 100.509 389.941 100.318 389.941 100.145C389.941 99.937 389.976 99.729 390.045 99.521C390.132 99.2956 390.245 99.0963 390.383 98.923C390.522 98.7496 390.687 98.611 390.877 98.507C391.068 98.3856 391.285 98.325 391.527 98.325C391.683 98.325 391.865 98.3423 392.073 98.377C392.299 98.4116 392.507 98.507 392.697 98.663C392.888 98.819 393.044 99.053 393.165 99.365C393.304 99.6596 393.373 100.067 393.373 100.587Z" fill="#235B3E"/>
<path d="M319.032 54.8662C312.199 48.9349 303.146 55.466 306.016 63.5778C308.025 69.256 325.346 72.7121 325.346 72.7121C325.346 72.7121 336.928 59.9446 334.919 54.2663C332.049 46.1545 320.7 46.1962 319.032 54.8662Z" fill="#E8743B" stroke="#2C2A26" stroke-width="2.2"/>
</svg>
