<svg xmlns="http://www.w3.org/2000/svg" viewBox="0 0 560 500" fill="none" role="img" aria-label="마감 시간, 폰으로 마감딜을 등록하는 가게 사장님">
<defs><filter id="wobble"><feTurbulence type="fractalNoise" baseFrequency="0.016" numOctaves="2" result="t" seed="7"/><feDisplacementMap in="SourceGraphic" in2="t" scale="2.4" xChannelSelector="R" yChannelSelector="G"/></filter></defs>
<g filter="url(#wobble)">
  <rect x="24" y="54" width="512" height="392" rx="28" fill="#fffdf8" stroke="#2c2a26" stroke-width="3.5"/>
  <rect x="34" y="64" width="492" height="282" rx="20" fill="#fcefd6"/>
  <line x1="40" y1="346" x2="520" y2="346" stroke="#e6dcc4" stroke-width="2"/>
  <line x1="150" y1="56" x2="150" y2="120" stroke="#2c2a26" stroke-width="2.5"/>
  <path d="M150 142 L168 142 L186 214 L114 214 Z" fill="#f4a259" opacity="0.16"/>
  <path d="M132 120 L168 120 L160 143 L140 143 Z" fill="#f4a259" stroke="#2c2a26" stroke-width="3" stroke-linejoin="round"/>
  <circle cx="150" cy="147" r="4" fill="#fff3c4" stroke="#2c2a26" stroke-width="1.5"/>
  <circle cx="118" cy="150" r="26" fill="#fff" stroke="#2c2a26" stroke-width="3"/>
  <circle cx="118" cy="150" r="2.6" fill="#2c2a26"/>
  <path d="M118 150V131M118 150l-15 9" stroke="#235b3e" stroke-width="3" stroke-linecap="round"/>
  <rect x="300" y="96" width="128" height="104" rx="8" fill="#f9d59a"/>
  <circle cx="362" cy="178" r="20" fill="#f4a259"/>
  <path d="M312 134c10-8 22-8 30 0M386 120c8-6 18-6 26 0" stroke="#fff" stroke-width="3" stroke-linecap="round" opacity="0.8"/>
  <rect x="300" y="96" width="128" height="104" rx="8" fill="none" stroke="#2c2a26" stroke-width="3"/>
  <line x1="364" y1="96" x2="364" y2="200" stroke="#2c2a26" stroke-width="2.5"/>
  <line x1="300" y1="148" x2="428" y2="148" stroke="#2c2a26" stroke-width="2.5"/>
  <rect x="292" y="200" width="144" height="9" rx="3" fill="#d9b98c" stroke="#2c2a26" stroke-width="2.5"/>
  <line x1="470" y1="58" x2="478" y2="150" stroke="#2c2a26" stroke-width="2"/>
  <line x1="512" y1="58" x2="500" y2="150" stroke="#2c2a26" stroke-width="2"/>
  <path d="M474 150h30l-4 26h-22l-4-26Z" fill="#c69f6f" stroke="#2c2a26" stroke-width="2.6" stroke-linejoin="round"/>
  <path d="M480 152c-10 12-12 26-6 40M489 152c0 16-2 30-2 40M498 152c10 12 12 24 6 38" stroke="#3c7a58" stroke-width="2.6" stroke-linecap="round"/>
  <path d="M476 168c-8 0-13 5-15 11 7 1 13-3 15-11ZM502 168c8 0 13 5 15 11-7 1-13-3-15-11Z" fill="#235b3e" stroke="#2c2a26" stroke-width="2"/>
  <rect x="44" y="346" width="472" height="26" rx="7" fill="#d9b98c" stroke="#2c2a26" stroke-width="3"/>
  <rect x="44" y="372" width="472" height="66" rx="6" fill="#c69f6f" stroke="#2c2a26" stroke-width="3"/>
  <line x1="190" y1="374" x2="190" y2="436" stroke="#2c2a26" stroke-width="2" opacity="0.45"/>
  <line x1="350" y1="374" x2="350" y2="436" stroke="#2c2a26" stroke-width="2" opacity="0.45"/>
  <path d="M196 300 q0 -22 39 -22 q39 0 39 22 L274 346 L196 346 Z" fill="#fffdf8" stroke="#2c2a26" stroke-width="3"/>
  <path d="M258 304 q28 -12 48 -6 q7 2 4 11 q-26 7 -52 5 Z" fill="#fffdf8" stroke="#2c2a26" stroke-width="3"/>
  <circle cx="308" cy="306" r="8" fill="#f3d2ad" stroke="#2c2a26" stroke-width="2.5"/>
  <rect x="212" y="290" width="46" height="56" rx="9" fill="#235b3e" stroke="#2c2a26" stroke-width="2.8"/>
  <path d="M216 292l8 -20M254 292l-8 -20" stroke="#2c2a26" stroke-width="2.5" stroke-linecap="round"/>
  <line x1="216" y1="320" x2="254" y2="320" stroke="#143726" stroke-width="2.4"/>
  <rect x="223" y="324" width="24" height="14" rx="3" fill="none" stroke="#143726" stroke-width="2.2"/>
  <rect x="228" y="266" width="14" height="12" rx="4" fill="#f3d2ad" stroke="#2c2a26" stroke-width="2.5"/>
  <circle cx="235" cy="240" r="30" fill="#f3d2ad" stroke="#2c2a26" stroke-width="3"/>
  <path d="M205 240 q0 -36 30 -36 q30 0 30 36 q-12 -18 -30 -16 q-18 -2 -30 16 Z" fill="#5b4636" stroke="#2c2a26" stroke-width="2.6" stroke-linejoin="round"/>
  <circle cx="219" cy="251" r="5" fill="#f4a259" opacity="0.55"/><circle cx="251" cy="251" r="5" fill="#f4a259" opacity="0.55"/>
  <circle cx="226" cy="240" r="2.8" fill="#2c2a26"/><circle cx="246" cy="240" r="2.8" fill="#2c2a26"/>
  <path d="M222 233q4 -3 8 0M242 233q4 -3 8 0" stroke="#2c2a26" stroke-width="2" stroke-linecap="round"/>
  <path d="M226 251q9 9 18 0" stroke="#2c2a26" stroke-width="2.6" stroke-linecap="round"/>
  <rect x="299" y="276" width="30" height="48" rx="7" fill="#235b3e" stroke="#2c2a26" stroke-width="2.8"/>
  <rect x="304" y="288" width="20" height="26" rx="3" fill="#fffdf8" stroke="#2c2a26" stroke-width="1.6"/>
  <rect x="306" y="316" width="16" height="5" rx="2.5" fill="#f4a259"/>
  <rect x="86" y="316" width="56" height="30" rx="6" fill="#fff" stroke="#2c2a26" stroke-width="3"/>
  <line x1="86" y1="328" x2="142" y2="328" stroke="#2c2a26" stroke-width="2.2"/>
  <rect x="93" y="296" width="42" height="22" rx="5" fill="#fff" stroke="#2c2a26" stroke-width="2.8"/>
  <line x1="93" y1="305" x2="135" y2="305" stroke="#2c2a26" stroke-width="2"/>
  <circle cx="114" cy="290" r="3.5" fill="#e8743b"/>
  <ellipse cx="232" cy="344" rx="40" ry="11" fill="#eef3ee" stroke="#2c2a26" stroke-width="3"/>
  <circle cx="216" cy="336" r="10" fill="#fff" stroke="#2c2a26" stroke-width="2.8"/><circle cx="216" cy="336" r="3.4" fill="#3c7a58"/>
  <circle cx="232" cy="334" r="10" fill="#fff" stroke="#2c2a26" stroke-width="2.8"/><circle cx="232" cy="334" r="3.4" fill="#e8743b"/>
  <circle cx="248" cy="336" r="10" fill="#fff" stroke="#2c2a26" stroke-width="2.8"/><circle cx="248" cy="336" r="3.4" fill="#f4a259"/>
  <path d="M300 342q4 -16 22 -14q-6 9 -1 17q-13 5 -21 -3Z" fill="#f4a259" stroke="#2c2a26" stroke-width="2.6" stroke-linejoin="round"/>
  <path d="M306 332l5 8m6 -10l4 8" stroke="#2c2a26" stroke-width="1.8" stroke-linecap="round"/>
  <path d="M452 318 L484 318 L480 346 L456 346 Z" fill="#fff" stroke="#2c2a26" stroke-width="3" stroke-linejoin="round"/>
  <path d="M484 324q12 1 10 13q-2 8 -11 8" fill="none" stroke="#2c2a26" stroke-width="2.6" stroke-linecap="round"/>
  <path d="M462 310q-3 -8 2 -14M472 310q-3 -8 2 -14" stroke="#5c7a99" stroke-width="2.4" stroke-linecap="round"/>
  <line x1="120" y1="296" x2="120" y2="284" stroke="#2c2a26" stroke-width="1.8"/>
  <circle cx="80" cy="116" r="34" stroke="#235b3e" stroke-width="2.6" stroke-dasharray="2 11" fill="none" opacity="0.85"/>
  <path d="M48 90c-7 14-7 30 0 46M112 90c7 14 7 30 0 46" stroke="#235b3e" stroke-width="2.4" stroke-linecap="round" stroke-dasharray="2 9" opacity="0.7"/>
  <path d="M80 150C58 126 58 104 80 92C102 104 102 126 80 150Z" fill="#e8743b" stroke="#2c2a26" stroke-width="3" stroke-linejoin="round"/>
  <circle cx="80" cy="111" r="10" fill="#fffdf8" stroke="#2c2a26" stroke-width="2.5"/>
  <circle cx="44" cy="148" r="4" fill="#f4a259" stroke="#2c2a26" stroke-width="1.6"/>
  <path d="M322 290 C372 268 384 240 398 212" stroke="#5c7a99" stroke-width="2.4" stroke-linecap="round" stroke-dasharray="1 9"/>
  <ellipse cx="506" cy="322" rx="16" ry="7" fill="#f4a259" stroke="#2c2a26" stroke-width="2.4"/>
  <ellipse cx="506" cy="314" rx="16" ry="7" fill="#f9c98a" stroke="#2c2a26" stroke-width="2.4"/>
  <path d="M506 300c4 -16 0 -30 -2 -40M498 268l6 -10 7 9" stroke="#235b3e" stroke-width="2.8" stroke-linecap="round" stroke-linejoin="round" stroke-dasharray="3 8"/>
  <path d="M150 92l3 8 8 2-8 3-3 8-3-8-8-3 8-2 3-8Z" fill="#f4a259" stroke="#2c2a26" stroke-width="1.6"/>
</g>
<g>
  <g transform="rotate(-10 120 274)"><rect x="103" y="266" width="34" height="18" rx="5" fill="#fbe2cf" stroke="#2c2a26" stroke-width="2"/><text x="120" y="279" text-anchor="middle" font-family="Gaegu, sans-serif" font-weight="700" font-size="12" fill="#c9551f">-50%</text></g>
  <text x="506" y="319" text-anchor="middle" font-family="Gaegu, sans-serif" font-weight="700" font-size="13" fill="#2c2a26">&#8361;</text>
  <rect x="402" y="88" width="150" height="170" rx="16" fill="#f4a259"/>
  <rect x="396" y="80" width="150" height="170" rx="16" fill="#fffdf8" stroke="#2c2a26" stroke-width="3"/>
  <text x="414" y="110" font-family="Gaegu, sans-serif" font-weight="700" font-size="16" fill="#143726">마감딜 등록</text>
  <circle cx="420" cy="131" r="9" fill="#eef3ee" stroke="#2c2a26" stroke-width="2"/>
  <rect x="436" y="124" width="94" height="6" rx="3" fill="#e6dcc4"/><rect x="436" y="135" width="64" height="6" rx="3" fill="#e6dcc4"/>
  <circle cx="420" cy="160" r="9" fill="#eef3ee" stroke="#2c2a26" stroke-width="2"/>
  <rect x="436" y="153" width="94" height="6" rx="3" fill="#e6dcc4"/><rect x="436" y="164" width="50" height="6" rx="3" fill="#e6dcc4"/>
  <rect x="410" y="184" width="58" height="22" rx="7" fill="#fbe2cf" stroke="#2c2a26" stroke-width="2"/>
  <text x="439" y="200" text-anchor="middle" font-family="Gaegu, sans-serif" font-weight="700" font-size="13" fill="#c9551f">-50%</text>
  <rect x="410" y="214" width="122" height="30" rx="10" fill="#235b3e" stroke="#2c2a26" stroke-width="2.6"/>
  <text x="471" y="234" text-anchor="middle" font-family="Gaegu, sans-serif" font-weight="700" font-size="14" fill="#fff">등록하기</text>
</g>
</svg>
