<svg width="360" height="320" viewBox="0 0 360 320" fill="none" xmlns="http://www.w3.org/2000/svg">
<path d="M70 150H290L274 300C273.51 303.888 271.611 307.461 268.661 310.042C265.712 312.622 261.919 314.031 258 314H102C98.0813 314.031 94.2877 312.622 91.3385 310.042C88.3893 307.461 86.4897 303.888 86 300L70 150Z" fill="#EAF2EC" stroke="#2C2A26" stroke-width="3.5" stroke-linejoin="round"/>
<path d="M58 150H302" stroke="#2C2A26" stroke-width="3.5" stroke-linecap="round"/>
<path d="M118 178V288M180 178V288M242 178V288" stroke="#4A6581" stroke-width="3" stroke-linecap="round"/>
<path d="M150 92C162.15 92 172 82.1503 172 70C172 57.8497 162.15 48 150 48C137.85 48 128 57.8497 128 70C128 82.1503 137.85 92 150 92Z" fill="#F9C98A" stroke="#2C2A26" stroke-width="3"/>
<path d="M205 74C214.941 74 223 65.9411 223 56C223 46.0589 214.941 38 205 38C195.059 38 187 46.0589 187 56C187 65.9411 195.059 74 205 74Z" fill="#F4A259" stroke="#2C2A26" stroke-width="3"/>
<path d="M250 107C258.284 107 265 100.284 265 92C265 83.7157 258.284 77 250 77C241.716 77 235 83.7157 235 92C235 100.284 241.716 107 250 107Z" fill="#F9C98A" stroke="#2C2A26" stroke-width="3"/>
<path d="M150 101V135M205 81V125M250 114V142" stroke="#E8743B" stroke-width="2.6" stroke-linecap="round" stroke-dasharray="2 8"/>
<path d="M300 60C314 66 320 80 316 94" stroke="#E8743B" stroke-width="3" stroke-linecap="round" stroke-dasharray="2 9"/>
<path d="M86.7157 51.9644C72.7157 57.9644 66.7157 71.9644 70.7157 85.9644" stroke="#E8743B" stroke-width="3" stroke-linecap="round" stroke-dasharray="2 9"/>
<path d="M40 120L44 130L54 133L44 137L40 147L36 137L26 133L36 130L40 120Z" fill="#F4A259" stroke="#2C2A26" stroke-width="1.8"/>
<path d="M270.144 40.8625L272.644 47.1131L278.895 48.9883L272.644 51.4885L270.144 57.739L267.644 51.4885L261.393 48.9883L267.644 47.1131L270.144 40.8625Z" fill="#FFE9CD" stroke="#2C2A26" stroke-width="1.8"/>
<path d="M156.86 69.4C157.273 69.4133 157.48 69.6867 157.48 70.22C157.48 70.6067 157.333 70.8467 157.04 70.94C156.76 71.02 156.306 71.06 155.68 71.06H155.22C154.873 72.2733 154.526 73.2133 154.18 73.88C153.846 74.5467 153.533 74.98 153.24 75.18L152.46 75.66C152.393 75.62 152.286 75.4867 152.14 75.26C151.993 75.0333 151.833 74.7733 151.66 74.48C151.486 74.1733 151.32 73.86 151.16 73.54C151 73.2067 150.873 72.92 150.78 72.68C150.5 72.36 150.233 71.7733 149.98 70.92H149.44C149.346 71.4 149.266 71.7867 149.2 72.08C149.146 72.36 149.093 72.5867 149.04 72.76C149 72.92 148.953 73.0533 148.9 73.16C148.86 73.2667 148.813 73.38 148.76 73.5C148.56 73.9133 148.386 74.2533 148.24 74.52C148.093 74.7867 147.953 75.0067 147.82 75.18C147.7 75.34 147.573 75.4733 147.44 75.58C147.32 75.6733 147.18 75.76 147.02 75.84C146.846 75.7467 146.66 75.5733 146.46 75.32C146.26 75.0533 146.073 74.7667 145.9 74.46C145.74 74.14 145.6 73.82 145.48 73.5C145.373 73.18 145.313 72.9067 145.3 72.68C145.273 72.6133 145.226 72.44 145.16 72.16C145.093 71.88 145.006 71.4933 144.9 71C144.713 71.0133 144.48 71.02 144.2 71.02C143.92 71.02 143.586 71.02 143.2 71.02C142.746 71.02 142.52 70.76 142.52 70.24C142.52 69.88 142.633 69.6333 142.86 69.5C143.086 69.3667 143.48 69.3 144.04 69.3H144.46C144.46 69.1133 144.433 68.92 144.38 68.72C144.326 68.5067 144.266 68.2933 144.2 68.08C144.146 67.8533 144.093 67.64 144.04 67.44C144 67.2267 143.98 67.0267 143.98 66.84C143.98 66.52 144.073 66.28 144.26 66.12C144.46 65.96 144.666 65.88 144.88 65.88C145.266 65.88 145.646 66.0867 146.02 66.5C146.006 66.5533 146 66.64 146 66.76C146.013 66.9067 146.026 67.08 146.04 67.28C146.053 67.4667 146.08 67.6933 146.12 67.96L146.32 69.16C146.32 69.16 146.333 69.2133 146.36 69.32C146.72 69.3067 147.04 69.3 147.32 69.3C147.6 69.2867 147.84 69.28 148.04 69.28L148.22 68.68C148.3 68.12 148.413 67.68 148.56 67.36V67.24C148.56 66.7333 148.906 66.48 149.6 66.48C149.76 66.48 149.886 66.5 149.98 66.54C150.073 66.5667 150.146 66.62 150.2 66.7C150.266 66.78 150.326 66.88 150.38 67C150.433 67.12 150.493 67.2667 150.56 67.44C150.68 67.72 150.766 67.92 150.82 68.04C150.873 68.1467 150.913 68.24 150.94 68.32C150.98 68.4 151.02 68.5 151.06 68.62C151.1 68.74 151.16 68.9467 151.24 69.24C151.493 69.24 151.72 69.2667 151.92 69.32C152.08 69.2933 152.246 69.28 152.42 69.28C152.606 69.28 152.813 69.28 153.04 69.28H153.84C153.893 68.9333 153.96 68.5667 154.04 68.18C154.133 67.7933 154.233 67.42 154.34 67.06C154.446 66.7 154.553 66.38 154.66 66.1C154.766 65.8067 154.866 65.5867 154.96 65.44C155.08 65.3867 155.24 65.36 155.44 65.36C155.933 65.36 156.293 65.5533 156.52 65.94C156.506 66.1133 156.446 66.44 156.34 66.92C156.233 67.4 156.066 68.04 155.84 68.84C155.813 68.9333 155.786 69.02 155.76 69.1C155.746 69.18 155.726 69.26 155.7 69.34L156.86 69.4ZM153.32 70.92H151.84C151.96 71.08 152.086 71.3267 152.22 71.66C152.353 71.9933 152.526 72.38 152.74 72.82C152.833 72.6733 152.913 72.4867 152.98 72.26C153.046 72.02 153.106 71.7933 153.16 71.58C153.213 71.3667 153.253 71.1933 153.28 71.06C153.306 70.9267 153.32 70.88 153.32 70.92ZM147.66 70.94C147.46 70.9533 147.28 70.9667 147.12 70.98C146.96 70.98 146.82 70.98 146.7 70.98L146.84 71.82C146.946 72.1267 147.046 72.4333 147.14 72.74C147.18 72.5933 147.226 72.4333 147.28 72.26C147.346 72.0733 147.426 71.8667 147.52 71.64L147.66 70.94Z" fill="#2C2A26"/>
<path d="M210.488 55.72C210.818 55.7307 210.984 55.9493 210.984 56.376C210.984 56.6853 210.866 56.8773 210.632 56.952C210.408 57.016 210.045 57.048 209.544 57.048H209.176C208.898 58.0187 208.621 58.7707 208.344 59.304C208.077 59.8373 207.826 60.184 207.592 60.344L206.968 60.728C206.914 60.696 206.829 60.5893 206.712 60.408C206.594 60.2267 206.466 60.0187 206.328 59.784C206.189 59.5387 206.056 59.288 205.928 59.032C205.8 58.7653 205.698 58.536 205.624 58.344C205.4 58.088 205.186 57.6187 204.984 56.936H204.552C204.477 57.32 204.413 57.6293 204.36 57.864C204.317 58.088 204.274 58.2693 204.232 58.408C204.2 58.536 204.162 58.6427 204.12 58.728C204.088 58.8133 204.05 58.904 204.008 59C203.848 59.3307 203.709 59.6027 203.592 59.816C203.474 60.0293 203.362 60.2053 203.256 60.344C203.16 60.472 203.058 60.5787 202.952 60.664C202.856 60.7387 202.744 60.808 202.616 60.872C202.477 60.7973 202.328 60.6587 202.168 60.456C202.008 60.2427 201.858 60.0133 201.72 59.768C201.592 59.512 201.48 59.256 201.384 59C201.298 58.744 201.25 58.5253 201.24 58.344C201.218 58.2907 201.181 58.152 201.128 57.928C201.074 57.704 201.005 57.3947 200.92 57C200.77 57.0107 200.584 57.016 200.36 57.016C200.136 57.016 199.869 57.016 199.56 57.016C199.197 57.016 199.016 56.808 199.016 56.392C199.016 56.104 199.106 55.9067 199.288 55.8C199.469 55.6933 199.784 55.64 200.232 55.64H200.568C200.568 55.4907 200.546 55.336 200.504 55.176C200.461 55.0053 200.413 54.8347 200.36 54.664C200.317 54.4827 200.274 54.312 200.232 54.152C200.2 53.9813 200.184 53.8213 200.184 53.672C200.184 53.416 200.258 53.224 200.408 53.096C200.568 52.968 200.733 52.904 200.904 52.904C201.213 52.904 201.517 53.0693 201.816 53.4C201.805 53.4427 201.8 53.512 201.8 53.608C201.81 53.7253 201.821 53.864 201.832 54.024C201.842 54.1733 201.864 54.3547 201.896 54.568L202.056 55.528C202.056 55.528 202.066 55.5707 202.088 55.656C202.376 55.6453 202.632 55.64 202.856 55.64C203.08 55.6293 203.272 55.624 203.432 55.624L203.576 55.144C203.64 54.696 203.73 54.344 203.848 54.088V53.992C203.848 53.5867 204.125 53.384 204.68 53.384C204.808 53.384 204.909 53.4 204.984 53.432C205.058 53.4533 205.117 53.496 205.16 53.56C205.213 53.624 205.261 53.704 205.304 53.8C205.346 53.896 205.394 54.0133 205.448 54.152C205.544 54.376 205.613 54.536 205.656 54.632C205.698 54.7173 205.73 54.792 205.752 54.856C205.784 54.92 205.816 55 205.848 55.096C205.88 55.192 205.928 55.3573 205.992 55.592C206.194 55.592 206.376 55.6133 206.536 55.656C206.664 55.6347 206.797 55.624 206.936 55.624C207.085 55.624 207.25 55.624 207.432 55.624H208.072C208.114 55.3467 208.168 55.0533 208.232 54.744C208.306 54.4347 208.386 54.136 208.472 53.848C208.557 53.56 208.642 53.304 208.728 53.08C208.813 52.8453 208.893 52.6693 208.968 52.552C209.064 52.5093 209.192 52.488 209.352 52.488C209.746 52.488 210.034 52.6427 210.216 52.952C210.205 53.0907 210.157 53.352 210.072 53.736C209.986 54.12 209.853 54.632 209.672 55.272C209.65 55.3467 209.629 55.416 209.608 55.48C209.597 55.544 209.581 55.608 209.56 55.672L210.488 55.72ZM207.656 56.936H206.472C206.568 57.064 206.669 57.2613 206.776 57.528C206.882 57.7947 207.021 58.104 207.192 58.456C207.266 58.3387 207.33 58.1893 207.384 58.008C207.437 57.816 207.485 57.6347 207.528 57.464C207.57 57.2933 207.602 57.1547 207.624 57.048C207.645 56.9413 207.656 56.904 207.656 56.936ZM203.128 56.952C202.968 56.9627 202.824 56.9733 202.696 56.984C202.568 56.984 202.456 56.984 202.36 56.984L202.472 57.656C202.557 57.9013 202.637 58.1467 202.712 58.392C202.744 58.2747 202.781 58.1467 202.824 58.008C202.877 57.8587 202.941 57.6933 203.016 57.512L203.128 56.952Z" fill="#2C2A26"/>
<path d="M254.459 91.71C254.727 91.7187 254.862 91.8963 254.862 92.243C254.862 92.4943 254.766 92.6503 254.576 92.711C254.394 92.763 254.099 92.789 253.692 92.789H253.393C253.167 93.5777 252.942 94.1887 252.717 94.622C252.5 95.0553 252.296 95.337 252.106 95.467L251.599 95.779C251.555 95.753 251.486 95.6663 251.391 95.519C251.295 95.3717 251.191 95.2027 251.079 95.012C250.966 94.8127 250.858 94.609 250.754 94.401C250.65 94.1843 250.567 93.998 250.507 93.842C250.325 93.634 250.151 93.2527 249.987 92.698H249.636C249.575 93.01 249.523 93.2613 249.48 93.452C249.445 93.634 249.41 93.7813 249.376 93.894C249.35 93.998 249.319 94.0847 249.285 94.154C249.259 94.2233 249.228 94.297 249.194 94.375C249.064 94.6437 248.951 94.8647 248.856 95.038C248.76 95.2113 248.669 95.3543 248.583 95.467C248.505 95.571 248.422 95.6577 248.336 95.727C248.258 95.7877 248.167 95.844 248.063 95.896C247.95 95.8353 247.829 95.7227 247.699 95.558C247.569 95.3847 247.447 95.1983 247.335 94.999C247.231 94.791 247.14 94.583 247.062 94.375C246.992 94.167 246.953 93.9893 246.945 93.842C246.927 93.7987 246.897 93.686 246.854 93.504C246.81 93.322 246.754 93.0707 246.685 92.75C246.563 92.7587 246.412 92.763 246.23 92.763C246.048 92.763 245.831 92.763 245.58 92.763C245.285 92.763 245.138 92.594 245.138 92.256C245.138 92.022 245.211 91.8617 245.359 91.775C245.506 91.6883 245.762 91.645 246.126 91.645H246.399C246.399 91.5237 246.381 91.398 246.347 91.268C246.312 91.1293 246.273 90.9907 246.23 90.852C246.195 90.7047 246.16 90.566 246.126 90.436C246.1 90.2973 246.087 90.1673 246.087 90.046C246.087 89.838 246.147 89.682 246.269 89.578C246.399 89.474 246.533 89.422 246.672 89.422C246.923 89.422 247.17 89.5563 247.413 89.825C247.404 89.8597 247.4 89.916 247.4 89.994C247.408 90.0893 247.417 90.202 247.426 90.332C247.434 90.4533 247.452 90.6007 247.478 90.774L247.608 91.554C247.608 91.554 247.616 91.5887 247.634 91.658C247.868 91.6493 248.076 91.645 248.258 91.645C248.44 91.6363 248.596 91.632 248.726 91.632L248.843 91.242C248.895 90.878 248.968 90.592 249.064 90.384V90.306C249.064 89.9767 249.289 89.812 249.74 89.812C249.844 89.812 249.926 89.825 249.987 89.851C250.047 89.8683 250.095 89.903 250.13 89.955C250.173 90.007 250.212 90.072 250.247 90.15C250.281 90.228 250.32 90.3233 250.364 90.436C250.442 90.618 250.498 90.748 250.533 90.826C250.567 90.8953 250.593 90.956 250.611 91.008C250.637 91.06 250.663 91.125 250.689 91.203C250.715 91.281 250.754 91.4153 250.806 91.606C250.97 91.606 251.118 91.6233 251.248 91.658C251.352 91.6407 251.46 91.632 251.573 91.632C251.694 91.632 251.828 91.632 251.976 91.632H252.496C252.53 91.4067 252.574 91.1683 252.626 90.917C252.686 90.6657 252.751 90.423 252.821 90.189C252.89 89.955 252.959 89.747 253.029 89.565C253.098 89.3743 253.163 89.2313 253.224 89.136C253.302 89.1013 253.406 89.084 253.536 89.084C253.856 89.084 254.09 89.2097 254.238 89.461C254.229 89.5737 254.19 89.786 254.121 90.098C254.051 90.41 253.943 90.826 253.796 91.346C253.778 91.4067 253.761 91.463 253.744 91.515C253.735 91.567 253.722 91.619 253.705 91.671L254.459 91.71ZM252.158 92.698H251.196C251.274 92.802 251.356 92.9623 251.443 93.179C251.529 93.3957 251.642 93.647 251.781 93.933C251.841 93.8377 251.893 93.7163 251.937 93.569C251.98 93.413 252.019 93.2657 252.054 93.127C252.088 92.9883 252.114 92.8757 252.132 92.789C252.149 92.7023 252.158 92.672 252.158 92.698ZM248.479 92.711C248.349 92.7197 248.232 92.7283 248.128 92.737C248.024 92.737 247.933 92.737 247.855 92.737L247.946 93.283C248.015 93.4823 248.08 93.6817 248.141 93.881C248.167 93.7857 248.197 93.6817 248.232 93.569C248.275 93.4477 248.327 93.3133 248.388 93.166L248.479 92.711Z" fill="#2C2A26"/>
</svg>
