<svg width="220" height="150" viewBox="0 0 220 150" fill="none" xmlns="http://www.w3.org/2000/svg">
<path d="M198 110H22C19.7909 110 18 111.791 18 114V120C18 122.209 19.7909 124 22 124H198C200.209 124 202 122.209 202 120V114C202 111.791 200.209 110 198 110Z" fill="#AEB8B2" stroke="#2C2A26" stroke-width="2.5"/>
<path d="M202 124H18V146H202V124Z" fill="#9AA6A0" stroke="#2C2A26" stroke-width="2.5"/>
<path d="M68 92H40C37.7909 92 36 93.7909 36 96V106C36 108.209 37.7909 110 40 110H68C70.2091 110 72 108.209 72 106V96C72 93.7909 70.2091 92 68 92Z" fill="#DFE4E1" stroke="#2C2A26" stroke-width="2.2"/>
<path d="M36 100H72" stroke="#2C2A26" stroke-width="1.6"/>
<path d="M66 74H48C45.7909 74 44 75.7909 44 78V88C44 90.2091 45.7909 92 48 92H66C68.2091 92 70 90.2091 70 88V78C70 75.7909 68.2091 74 66 74Z" fill="#DFE4E1" stroke="#2C2A26" stroke-width="2"/>
<path d="M110 88H84C81.7909 88 80 89.7909 80 92V106C80 108.209 81.7909 110 84 110H110C112.209 110 114 108.209 114 106V92C114 89.7909 112.209 88 110 88Z" fill="#DFE4E1" stroke="#2C2A26" stroke-width="2.2"/>
<path d="M139.701 87.6322C131.701 89.6322 126.701 96.9655 124.701 109.632" stroke="#2C2A26" stroke-width="2.4" stroke-linecap="round"/>
<path d="M167 87.6322C175 89.6322 180 96.9655 182 109.632" stroke="#2C2A26" stroke-width="2.4" stroke-linecap="round"/>
<path d="M152 86C164.15 86 174 76.1503 174 64C174 51.8497 164.15 42 152 42C139.85 42 130 51.8497 130 64C130 76.1503 139.85 86 152 86Z" fill="#E3CDB4" stroke="#2C2A26" stroke-width="2.6"/>
<path d="M130 64C130 47.3333 137.333 39 152 39C166.667 39 174 47.3333 174 64C168 55.3333 160.667 51.3333 152 52C143.333 51.3333 136 55.3333 130 64Z" fill="#6B5A48" stroke="#2C2A26" stroke-width="2.2" stroke-linejoin="round"/>
<path d="M145 66.2C146.215 66.2 147.2 65.215 147.2 64C147.2 62.785 146.215 61.8 145 61.8C143.785 61.8 142.8 62.785 142.8 64C142.8 65.215 143.785 66.2 145 66.2Z" fill="#2C2A26"/>
<path d="M159 66.2C160.215 66.2 161.2 65.215 161.2 64C161.2 62.785 160.215 61.8 159 61.8C157.785 61.8 156.8 62.785 156.8 64C156.8 65.215 157.785 66.2 159 66.2Z" fill="#2C2A26"/>
<path d="M146 78C150 75.3333 154 75.3333 158 78" stroke="#2C2A26" stroke-width="2.2" stroke-linecap="round"/>
<path d="M176 48C178.667 52 178.667 55 176 57C175.534 57.1658 175.033 57.2137 174.544 57.1392C174.055 57.0648 173.591 56.8704 173.195 56.5733C172.799 56.2763 172.483 55.8859 172.274 55.4369C172.066 54.9879 171.972 54.4942 172 54C172.667 52 174 50 176 48Z" fill="#9FC0D6" stroke="#2C2A26" stroke-width="1.5"/>
<path d="M168 43.4C169.878 43.4 171.4 41.8778 171.4 40C171.4 38.1222 169.878 36.6 168 36.6C166.122 36.6 164.6 38.1222 164.6 40C164.6 41.8778 166.122 43.4 168 43.4Z" fill="white" stroke="#2C2A26" stroke-width="1.5"/>
<path d="M190 39C197.18 39 203 33.1797 203 26C203 18.8203 197.18 13 190 13C182.82 13 177 18.8203 177 26C177 33.1797 182.82 39 190 39Z" fill="white" stroke="#2C2A26" stroke-width="2.2"/>
<path d="M185 21H195L193.6 30C193.528 30.4769 193.285 30.9116 192.918 31.224C192.55 31.5364 192.082 31.7055 191.6 31.7H188.4C187.918 31.7055 187.45 31.5364 187.082 31.224C186.715 30.9116 186.472 30.4769 186.4 30L185 21Z" fill="#CFD6D1" stroke="#2C2A26" stroke-width="1.5" stroke-linejoin="round"/>
<path d="M183 21H197M187.5 18H192.5" stroke="#2C2A26" stroke-width="1.5" stroke-linecap="round"/>
</svg>
