<svg width="220" height="150" viewBox="0 0 220 150" fill="none" xmlns="http://www.w3.org/2000/svg">
<path d="M198 110H22C19.7909 110 18 111.791 18 114V120C18 122.209 19.7909 124 22 124H198C200.209 124 202 122.209 202 120V114C202 111.791 200.209 110 198 110Z" fill="#D9B98C" stroke="#2C2A26" stroke-width="2.5"/>
<path d="M202 124H18V146H202V124Z" fill="#C69F6F" stroke="#2C2A26" stroke-width="2.5"/>
<path d="M66 90H38C35.7909 90 34 91.7909 34 94V106C34 108.209 35.7909 110 38 110H66C68.2091 110 70 108.209 70 106V94C70 91.7909 68.2091 90 66 90Z" fill="#FFFDF8" stroke="#2C2A26" stroke-width="2.2"/>
<path d="M34 98H70" stroke="#2C2A26" stroke-width="1.7"/>
<path d="M52 84V90" stroke="#2C2A26" stroke-width="1.5"/>
<path d="M118 86.5912C130.15 86.5912 140 76.7415 140 64.5912C140 52.441 130.15 42.5912 118 42.5912C105.85 42.5912 96 52.441 96 64.5912C96 76.7415 105.85 86.5912 118 86.5912Z" fill="#F3D2AD" stroke="#2C2A26" stroke-width="2.6"/>
<path d="M96 64.5912C96 47.9246 103.333 39.5912 118 39.5912C132.667 39.5912 140 47.9246 140 64.5912C134 55.9246 126.667 51.9246 118 52.5912C109.333 51.9246 102 55.9246 96 64.5912Z" fill="#5B4636" stroke="#2C2A26" stroke-width="2.2" stroke-linejoin="round"/>
<path d="M111 66.7912C112.215 66.7912 113.2 65.8063 113.2 64.5912C113.2 63.3762 112.215 62.3912 111 62.3912C109.785 62.3912 108.8 63.3762 108.8 64.5912C108.8 65.8063 109.785 66.7912 111 66.7912Z" fill="#2C2A26"/>
<path d="M125 66.7912C126.215 66.7912 127.2 65.8063 127.2 64.5912C127.2 63.3762 126.215 62.3912 125 62.3912C123.785 62.3912 122.8 63.3762 122.8 64.5912C122.8 65.8063 123.785 66.7912 125 66.7912Z" fill="#2C2A26"/>
<path d="M112 76.5912C116 80.5912 120 80.5912 124 76.5912" stroke="#2C2A26" stroke-width="2.2" stroke-linecap="round"/>
<path d="M199 18H159C154.029 18 150 22.0294 150 27V33C150 37.9706 154.029 42 159 42H199C203.971 42 208 37.9706 208 33V27C208 22.0294 203.971 18 199 18Z" fill="#FFFDF8" stroke="#2C2A26" stroke-width="2.4"/>
<path d="M166.711 42.2132L163.608 51.7194L173.036 42.174L166.711 42.2132Z" fill="#FFFDF8" stroke="#2C2A26" stroke-width="2.4" stroke-linejoin="round"/>
<path d="M170.847 29.672L170.106 29.815C169.985 29.8323 169.872 29.8453 169.768 29.854C169.673 29.8627 169.586 29.867 169.508 29.867H169.417L168.286 29.984C168.26 30.4433 168.234 30.8117 168.208 31.089C168.182 31.3663 168.143 31.583 168.091 31.739C168.039 31.8863 167.97 31.986 167.883 32.038C167.797 32.09 167.684 32.116 167.545 32.116C167.389 32.116 167.246 32.09 167.116 32.038C166.995 31.986 166.934 31.8733 166.934 31.7C166.934 31.6567 166.934 31.6047 166.934 31.544C166.943 31.4833 166.952 31.4183 166.96 31.349L167.051 30.79C167.051 30.7727 167.047 30.751 167.038 30.725C167.038 30.699 167.038 30.673 167.038 30.647C167.038 30.595 167.038 30.53 167.038 30.452C167.047 30.3653 167.051 30.2787 167.051 30.192C167.06 30.1053 167.064 30.0317 167.064 29.971C167.073 29.9017 167.077 29.854 167.077 29.828V29.776V29.243C167.086 29.0957 167.09 28.9787 167.09 28.892C167.099 28.7967 167.103 28.723 167.103 28.671C167.103 28.645 167.099 28.593 167.09 28.515C167.082 28.437 167.069 28.3503 167.051 28.255C167.043 28.1597 167.034 28.0687 167.025 27.982C167.017 27.8867 167.012 27.8087 167.012 27.748C167.012 27.722 167.012 27.7003 167.012 27.683C167.021 27.657 167.025 27.6353 167.025 27.618C167.008 27.5747 166.991 27.5183 166.973 27.449C166.956 27.371 166.939 27.2843 166.921 27.189L166.843 26.825C166.826 26.7817 166.813 26.7383 166.804 26.695C166.796 26.6517 166.791 26.6083 166.791 26.565C166.791 26.2617 167.017 26.11 167.467 26.11C167.693 26.11 167.875 26.1837 168.013 26.331C168.065 26.4523 168.109 26.5953 168.143 26.76C168.187 26.9247 168.217 27.0893 168.234 27.254C168.26 27.4187 168.278 27.579 168.286 27.735C168.304 27.8823 168.312 28.008 168.312 28.112C168.312 28.1553 168.312 28.1943 168.312 28.229C168.312 28.2637 168.308 28.294 168.299 28.32C168.317 28.3633 168.325 28.4067 168.325 28.45C168.325 28.4933 168.325 28.541 168.325 28.593V28.801C168.455 28.801 168.572 28.7967 168.676 28.788C168.78 28.7707 168.884 28.7533 168.988 28.736C169.092 28.71 169.201 28.6927 169.313 28.684C169.426 28.6667 169.552 28.658 169.69 28.658H169.807C169.877 28.6407 169.963 28.6277 170.067 28.619C170.18 28.6103 170.293 28.606 170.405 28.606C170.466 28.606 170.54 28.6103 170.626 28.619C170.713 28.6277 170.791 28.6537 170.86 28.697C170.93 28.7403 170.99 28.8097 171.042 28.905C171.094 28.9917 171.12 29.1173 171.12 29.282C171.12 29.438 171.029 29.568 170.847 29.672ZM165.231 29.399C165.257 29.4943 165.27 29.5897 165.27 29.685C165.27 29.9103 165.201 30.153 165.062 30.413C164.82 30.465 164.599 30.4867 164.399 30.478C164.209 30.4693 164.005 30.4867 163.788 30.53C163.641 30.556 163.52 30.5733 163.424 30.582C163.329 30.5907 163.26 30.595 163.216 30.595H162.878C162.792 30.595 162.662 30.5777 162.488 30.543C162.315 30.5083 162.146 30.4737 161.981 30.439C161.955 30.4043 161.921 30.3437 161.877 30.257C161.834 30.1617 161.791 30.0577 161.747 29.945C161.713 29.8323 161.678 29.724 161.643 29.62C161.617 29.5073 161.604 29.4163 161.604 29.347C161.604 29.3123 161.604 29.2777 161.604 29.243C161.613 29.2083 161.617 29.1737 161.617 29.139C161.617 29.035 161.604 28.944 161.578 28.866C161.552 28.788 161.531 28.7273 161.513 28.684C161.513 28.58 161.505 28.502 161.487 28.45C161.47 28.398 161.44 28.281 161.396 28.099C161.379 28.0557 161.37 28.0123 161.37 27.969C161.37 27.917 161.37 27.865 161.37 27.813C161.37 27.683 161.375 27.566 161.383 27.462C161.401 27.358 161.444 27.2713 161.513 27.202C161.583 27.124 161.691 27.0677 161.838 27.033C161.986 26.9897 162.198 26.968 162.475 26.968H162.618C162.67 26.9593 162.731 26.955 162.8 26.955C162.878 26.9463 162.961 26.942 163.047 26.942C163.151 26.942 163.264 26.9463 163.385 26.955C163.515 26.9637 163.624 26.9853 163.71 27.02C163.762 27.046 163.836 27.0633 163.931 27.072C164.035 27.072 164.148 27.0763 164.269 27.085C164.391 27.0937 164.516 27.1067 164.646 27.124C164.785 27.1413 164.919 27.1717 165.049 27.215C165.093 27.3277 165.127 27.4837 165.153 27.683C165.179 27.8823 165.192 28.086 165.192 28.294C165.192 28.3373 165.188 28.3807 165.179 28.424C165.179 28.4587 165.179 28.4933 165.179 28.528C165.179 28.5887 165.179 28.645 165.179 28.697C165.188 28.7403 165.197 28.7923 165.205 28.853C165.214 28.905 165.218 28.9743 165.218 29.061C165.227 29.1477 165.231 29.2603 165.231 29.399ZM164.022 29.36C164.022 29.3167 164.022 29.2733 164.022 29.23C164.031 29.178 164.035 29.1303 164.035 29.087C164.035 29.0003 164.031 28.9353 164.022 28.892C164.031 28.8573 164.035 28.8227 164.035 28.788C164.035 28.7533 164.035 28.7187 164.035 28.684C164.035 28.5973 164.031 28.5193 164.022 28.45C164.014 28.372 164.001 28.2983 163.983 28.229C163.879 28.2117 163.784 28.1987 163.697 28.19C163.619 28.1727 163.533 28.164 163.437 28.164C163.351 28.1553 163.247 28.151 163.125 28.151C163.004 28.1423 162.852 28.138 162.67 28.138C162.67 28.216 162.675 28.3113 162.683 28.424C162.692 28.528 162.701 28.6407 162.709 28.762C162.718 28.8747 162.727 28.9873 162.735 29.1C162.753 29.204 162.774 29.295 162.8 29.373C162.913 29.373 163.017 29.3817 163.112 29.399C163.208 29.4077 163.312 29.412 163.424 29.412H163.515H163.658C163.754 29.412 163.827 29.4077 163.879 29.399C163.931 29.3903 163.979 29.3773 164.022 29.36ZM181.121 28.177L180.38 28.307C180.259 28.3243 180.146 28.3417 180.042 28.359C179.947 28.3677 179.86 28.372 179.782 28.372H179.691L178.56 28.489C178.56 28.6103 178.552 28.736 178.534 28.866C178.517 28.996 178.495 29.1217 178.469 29.243C178.452 29.3557 178.435 29.464 178.417 29.568C178.4 29.6633 178.387 29.7413 178.378 29.802C178.335 29.906 178.266 29.9927 178.17 30.062C178.075 30.1227 177.954 30.153 177.806 30.153C177.642 30.153 177.499 30.127 177.377 30.075C177.265 30.023 177.208 29.9103 177.208 29.737C177.208 29.6937 177.208 29.6417 177.208 29.581C177.217 29.5203 177.226 29.4553 177.234 29.386L177.325 28.801C177.325 28.7837 177.321 28.762 177.312 28.736C177.312 28.71 177.312 28.684 177.312 28.658C177.312 28.606 177.312 28.5367 177.312 28.45C177.321 28.3633 177.325 28.281 177.325 28.203C177.334 28.1163 177.338 28.0383 177.338 27.969C177.347 27.8997 177.351 27.852 177.351 27.826V27.774C177.343 27.6527 177.343 27.514 177.351 27.358C177.369 27.202 177.377 27.0677 177.377 26.955C177.377 26.8163 177.364 26.6387 177.338 26.422C177.312 26.1967 177.265 25.9367 177.195 25.642L177.117 25.278C177.1 25.2347 177.087 25.1913 177.078 25.148C177.07 25.1047 177.065 25.0613 177.065 25.018C177.065 24.706 177.291 24.55 177.741 24.55C177.837 24.55 177.919 24.5587 177.988 24.576C178.066 24.5847 178.131 24.615 178.183 24.667C178.235 24.719 178.279 24.8013 178.313 24.914C178.357 25.0267 178.396 25.1783 178.43 25.369L178.547 26.006C178.547 26.0667 178.552 26.1577 178.56 26.279C178.578 26.4003 178.586 26.5173 178.586 26.63C178.586 26.7167 178.582 26.773 178.573 26.799C178.591 26.8423 178.599 26.89 178.599 26.942C178.599 26.9853 178.599 27.033 178.599 27.085V27.28C178.729 27.28 178.846 27.2757 178.95 27.267C179.054 27.2497 179.158 27.2323 179.262 27.215C179.366 27.189 179.47 27.1717 179.574 27.163C179.687 27.1457 179.813 27.137 179.951 27.137C179.977 27.137 179.999 27.1413 180.016 27.15C180.042 27.15 180.064 27.15 180.081 27.15C180.151 27.1327 180.242 27.1197 180.354 27.111C180.467 27.0937 180.58 27.085 180.692 27.085C180.753 27.085 180.822 27.0893 180.9 27.098C180.987 27.1067 181.065 27.137 181.134 27.189C181.212 27.2323 181.273 27.3017 181.316 27.397C181.368 27.4837 181.394 27.6093 181.394 27.774C181.394 27.9387 181.303 28.073 181.121 28.177ZM175.492 26.058C175.518 26.188 175.531 26.305 175.531 26.409C175.531 26.6083 175.475 26.825 175.362 27.059C175.258 27.2843 175.15 27.4837 175.037 27.657C174.977 27.8043 174.89 27.969 174.777 28.151C174.665 28.3243 174.535 28.5323 174.387 28.775C174.344 28.8877 174.257 29.0177 174.127 29.165C173.997 29.3037 173.893 29.4293 173.815 29.542C173.677 29.5767 173.542 29.594 173.412 29.594C173.213 29.594 173.083 29.529 173.022 29.399C172.962 29.2603 172.905 29.1043 172.853 28.931C172.94 28.7923 173.018 28.6797 173.087 28.593C173.157 28.4977 173.213 28.4153 173.256 28.346C173.308 28.268 173.352 28.1987 173.386 28.138C173.43 28.0773 173.473 27.9993 173.516 27.904C173.716 27.7047 173.863 27.5053 173.958 27.306C174.062 27.098 174.132 26.942 174.166 26.838C174.088 26.8207 173.989 26.8033 173.867 26.786C173.755 26.76 173.655 26.747 173.568 26.747H173.516C173.412 26.7123 173.308 26.695 173.204 26.695H172.97C172.849 26.695 172.723 26.682 172.593 26.656C172.463 26.6213 172.299 26.5823 172.099 26.539C172.004 26.3743 171.956 26.227 171.956 26.097C171.956 26.019 171.974 25.9453 172.008 25.876C172.052 25.798 172.099 25.733 172.151 25.681C172.203 25.6203 172.255 25.5727 172.307 25.538C172.359 25.4947 172.398 25.4687 172.424 25.46C172.736 25.46 172.988 25.4687 173.178 25.486C173.369 25.5033 173.534 25.525 173.672 25.551C173.811 25.5683 173.937 25.5943 174.049 25.629C174.171 25.655 174.305 25.681 174.452 25.707H174.556C174.712 25.707 174.868 25.7417 175.024 25.811C175.189 25.8803 175.345 25.9627 175.492 26.058ZM177.494 31.882C177.486 32.0293 177.473 32.1983 177.455 32.389C177.438 32.571 177.425 32.7357 177.416 32.883V33C177.416 33.13 177.403 33.2773 177.377 33.442C177.351 33.6153 177.295 33.7757 177.208 33.923C177.035 33.9577 176.896 33.975 176.792 33.975H176.662C176.619 33.975 176.563 33.9793 176.493 33.988C176.433 33.9967 176.355 34.0097 176.259 34.027C176.095 34.0617 175.969 34.0833 175.882 34.092C175.804 34.1093 175.726 34.118 175.648 34.118C175.579 34.1267 175.492 34.1267 175.388 34.118C175.284 34.118 175.124 34.118 174.907 34.118C174.682 34.118 174.491 34.105 174.335 34.079C174.266 33.9663 174.197 33.8233 174.127 33.65C174.067 33.4767 174.036 33.3077 174.036 33.143C174.036 32.805 174.006 32.5277 173.945 32.311C173.893 32.0857 173.867 31.8647 173.867 31.648C173.867 31.5093 173.876 31.3707 173.893 31.232C173.911 31.0847 173.945 30.9633 173.997 30.868C174.032 30.8333 174.106 30.803 174.218 30.777C174.34 30.7423 174.483 30.7163 174.647 30.699C174.812 30.673 174.985 30.6557 175.167 30.647C175.358 30.6297 175.536 30.621 175.7 30.621C175.787 30.621 175.869 30.6253 175.947 30.634C176.034 30.6427 176.112 30.66 176.181 30.686C176.329 30.7033 176.502 30.725 176.701 30.751C176.909 30.7683 177.13 30.816 177.364 30.894C177.408 31.0067 177.438 31.1323 177.455 31.271C177.481 31.401 177.494 31.5613 177.494 31.752V31.882ZM176.298 31.921C176.177 31.895 176.051 31.8777 175.921 31.869C175.791 31.8603 175.609 31.856 175.375 31.856C175.332 31.856 175.284 31.8603 175.232 31.869C175.18 31.869 175.133 31.869 175.089 31.869C175.089 31.9297 175.094 32.012 175.102 32.116C175.111 32.2113 175.12 32.311 175.128 32.415C175.146 32.519 175.159 32.6187 175.167 32.714C175.176 32.8093 175.185 32.8873 175.193 32.948C175.263 32.948 175.345 32.9437 175.44 32.935C175.544 32.9177 175.674 32.909 175.83 32.909H176.038C176.151 32.909 176.212 32.87 176.22 32.792C176.238 32.7053 176.246 32.6143 176.246 32.519V32.428C176.281 32.2547 176.298 32.0857 176.298 31.921ZM189.927 27.319C189.935 27.3623 189.94 27.4057 189.94 27.449C189.948 27.4923 189.953 27.5357 189.953 27.579C189.953 27.7003 189.944 27.8303 189.927 27.969C189.909 28.099 189.892 28.1987 189.875 28.268V28.372C189.875 28.5107 189.866 28.658 189.849 28.814C189.831 28.9613 189.797 29.1 189.745 29.23C189.701 29.3513 189.641 29.4553 189.562 29.542C189.485 29.62 189.385 29.659 189.264 29.659C189.064 29.659 188.913 29.6027 188.809 29.49C188.713 29.3687 188.666 29.243 188.666 29.113C188.666 28.9917 188.67 28.8963 188.679 28.827C188.696 28.749 188.713 28.6623 188.731 28.567C188.748 28.4717 188.761 28.3503 188.77 28.203C188.787 28.0557 188.796 27.8477 188.796 27.579C188.796 27.4577 188.787 27.371 188.77 27.319C188.761 27.267 188.757 27.1717 188.757 27.033C188.757 26.9203 188.77 26.7903 188.796 26.643C188.761 26.5217 188.744 26.3743 188.744 26.201C188.744 26.019 188.726 25.889 188.692 25.811C188.683 25.7157 188.674 25.616 188.666 25.512C188.666 25.408 188.666 25.304 188.666 25.2C188.666 25.0007 188.718 24.862 188.822 24.784C188.934 24.6973 189.09 24.654 189.29 24.654C189.498 24.654 189.654 24.7277 189.758 24.875C189.801 25.0743 189.836 25.2737 189.862 25.473C189.896 25.6637 189.914 25.8413 189.914 26.006C189.914 26.1013 189.909 26.1707 189.901 26.214C189.935 26.3787 189.953 26.552 189.953 26.734C189.953 26.8293 189.948 26.929 189.94 27.033C189.931 27.1283 189.927 27.2237 189.927 27.319ZM189.342 34.781C189.428 34.8677 189.472 34.989 189.472 35.145C189.472 35.3357 189.441 35.496 189.381 35.626C189.32 35.756 189.255 35.834 189.186 35.86C189.142 35.86 189.047 35.8687 188.9 35.886C188.752 35.912 188.575 35.938 188.367 35.964C188.167 35.99 187.955 36.0117 187.73 36.029C187.504 36.055 187.292 36.068 187.093 36.068C186.997 36.068 186.932 36.068 186.898 36.068C186.872 36.068 186.828 36.0637 186.768 36.055C186.716 36.055 186.629 36.0507 186.508 36.042C186.386 36.0333 186.183 36.0247 185.897 36.016C185.671 36.0073 185.498 36.003 185.377 36.003C185.264 36.003 185.164 35.9943 185.078 35.977C185 35.9683 184.913 35.9423 184.818 35.899C184.722 35.8557 184.584 35.7907 184.402 35.704C184.332 35.5567 184.276 35.4223 184.233 35.301C184.189 35.1883 184.168 35.0887 184.168 35.002C184.176 35.0107 184.185 34.9543 184.194 34.833C184.202 34.7203 184.228 34.495 184.272 34.157L184.389 33.221C184.389 33.2037 184.384 33.1907 184.376 33.182C184.376 33.1733 184.376 33.1603 184.376 33.143C184.376 33.013 184.406 32.8657 184.467 32.701C184.536 32.5363 184.605 32.415 184.675 32.337C184.701 32.3197 184.748 32.3067 184.818 32.298C184.896 32.2893 184.978 32.2807 185.065 32.272C185.16 32.2633 185.247 32.2503 185.325 32.233C185.403 32.2157 185.463 32.194 185.507 32.168C185.654 32.168 185.806 32.1637 185.962 32.155C186.118 32.1377 186.269 32.129 186.417 32.129C186.451 32.129 186.482 32.1333 186.508 32.142C186.542 32.142 186.577 32.142 186.612 32.142C186.724 32.116 186.867 32.103 187.041 32.103C187.214 32.0943 187.361 32.0857 187.483 32.077C187.5 32.025 187.517 31.9687 187.535 31.908C187.561 31.8387 187.578 31.7693 187.587 31.7C187.448 31.6827 187.288 31.6567 187.106 31.622C186.924 31.5873 186.798 31.5613 186.729 31.544C186.625 31.544 186.46 31.5267 186.235 31.492C186.009 31.4573 185.81 31.3923 185.637 31.297C185.55 31.2103 185.507 31.0673 185.507 30.868C185.507 30.5733 185.619 30.3523 185.845 30.205C185.966 30.2483 186.105 30.2743 186.261 30.283C186.425 30.2917 186.555 30.3177 186.651 30.361C186.772 30.3697 186.919 30.3827 187.093 30.4C187.266 30.4087 187.396 30.413 187.483 30.413H187.535C187.604 30.413 187.734 30.439 187.925 30.491C188.115 30.5343 188.319 30.5777 188.536 30.621C188.648 30.7597 188.731 30.9243 188.782 31.115C188.835 31.297 188.861 31.427 188.861 31.505C188.809 31.7477 188.757 31.9947 188.705 32.246C188.653 32.4973 188.553 32.7573 188.406 33.026C188.362 33.0433 188.306 33.0607 188.237 33.078C188.167 33.104 188.094 33.1257 188.016 33.143C187.946 33.1603 187.877 33.1777 187.808 33.195C187.747 33.2123 187.704 33.2253 187.678 33.234C187.418 33.234 187.188 33.2383 186.989 33.247C186.789 33.2557 186.607 33.2643 186.443 33.273C186.287 33.2903 186.139 33.3077 186.001 33.325C185.871 33.3423 185.741 33.364 185.611 33.39C185.593 33.442 185.576 33.5027 185.559 33.572C185.55 33.65 185.541 33.728 185.533 33.806C185.524 33.884 185.515 33.9533 185.507 34.014C185.498 34.0833 185.489 34.131 185.481 34.157C185.472 34.2437 185.459 34.3477 185.442 34.469C185.433 34.599 185.429 34.716 185.429 34.82L186.443 34.859C186.547 34.8677 186.638 34.872 186.716 34.872C186.794 34.8807 186.867 34.885 186.937 34.885C187.093 34.885 187.197 34.872 187.249 34.846C187.292 34.846 187.331 34.846 187.366 34.846C187.4 34.8547 187.439 34.859 187.483 34.859C187.578 34.859 187.652 34.8503 187.704 34.833C187.756 34.8243 187.825 34.8113 187.912 34.794C188.007 34.7853 188.137 34.7723 188.301 34.755C188.466 34.7463 188.709 34.742 189.03 34.742C189.168 34.742 189.272 34.755 189.342 34.781ZM183.986 28.307V28.385C183.977 28.385 183.955 28.3763 183.921 28.359C183.895 28.3417 183.882 28.3243 183.882 28.307H183.947H183.986ZM183.986 28.307C184.09 28.307 184.215 28.333 184.363 28.385C184.51 28.4283 184.679 28.45 184.869 28.45C184.965 28.45 185.052 28.4457 185.13 28.437C185.208 28.4197 185.29 28.411 185.377 28.411C185.394 28.411 185.416 28.4153 185.442 28.424C185.468 28.424 185.494 28.424 185.52 28.424C185.589 28.4153 185.689 28.4023 185.819 28.385C185.957 28.3677 186.074 28.359 186.17 28.359C186.222 28.3937 186.3 28.4673 186.404 28.58C186.516 28.6927 186.573 28.8097 186.573 28.931C186.573 29.0697 186.482 29.243 186.3 29.451C186.178 29.4683 186.066 29.49 185.962 29.516C185.858 29.542 185.758 29.568 185.663 29.594C185.567 29.6113 185.468 29.6287 185.364 29.646C185.26 29.6633 185.143 29.672 185.013 29.672C184.926 29.672 184.831 29.6677 184.727 29.659C184.631 29.6503 184.523 29.633 184.402 29.607C184.367 29.6243 184.332 29.633 184.298 29.633C184.272 29.633 184.246 29.633 184.22 29.633C184.133 29.633 184.046 29.6243 183.96 29.607C183.873 29.5897 183.782 29.5723 183.687 29.555C183.669 29.555 183.656 29.5593 183.648 29.568C183.648 29.568 183.639 29.568 183.622 29.568C183.535 29.568 183.435 29.542 183.323 29.49C183.219 29.438 183.11 29.386 182.998 29.334C182.937 29.2127 182.885 29.1043 182.842 29.009C182.807 28.9137 182.79 28.814 182.79 28.71C182.79 28.528 182.794 28.3763 182.803 28.255C182.811 28.1337 182.82 28.0297 182.829 27.943C182.846 27.8477 182.859 27.7567 182.868 27.67C182.885 27.5833 182.894 27.475 182.894 27.345C182.894 27.241 182.881 27.137 182.855 27.033C182.837 26.9203 182.829 26.7903 182.829 26.643C182.829 26.539 182.837 26.4263 182.855 26.305C182.872 26.175 182.894 26.0537 182.92 25.941C182.946 25.8197 182.972 25.7157 182.998 25.629C183.032 25.5337 183.058 25.4643 183.076 25.421C183.223 25.4037 183.388 25.3993 183.57 25.408C183.752 25.4167 183.89 25.395 183.986 25.343C184.098 25.343 184.185 25.343 184.246 25.343C184.315 25.3343 184.371 25.3257 184.415 25.317C184.458 25.3083 184.493 25.2997 184.519 25.291C184.545 25.2737 184.579 25.2607 184.623 25.252C184.649 25.2607 184.688 25.265 184.74 25.265C184.844 25.265 184.961 25.2477 185.091 25.213L185.481 25.122C185.767 25.1393 185.91 25.382 185.91 25.85C185.91 26.058 185.871 26.1923 185.793 26.253C185.715 26.305 185.563 26.3527 185.338 26.396L184.974 26.461C184.809 26.4697 184.657 26.4827 184.519 26.5C184.389 26.5173 184.237 26.5347 184.064 26.552C184.046 26.6473 184.029 26.7643 184.012 26.903C183.994 27.0417 183.986 27.1847 183.986 27.332C183.986 27.3927 183.986 27.4533 183.986 27.514C183.986 27.566 183.994 27.618 184.012 27.67C183.986 27.774 183.973 27.9083 183.973 28.073C183.973 28.1163 183.973 28.1597 183.973 28.203C183.981 28.2377 183.986 28.2723 183.986 28.307ZM195.976 26.071C195.984 26.1143 195.989 26.1577 195.989 26.201C195.997 26.2357 196.002 26.2703 196.002 26.305C196.002 26.357 195.989 26.4263 195.963 26.513C195.945 26.5997 195.924 26.695 195.898 26.799C195.872 26.903 195.846 27.007 195.82 27.111C195.794 27.215 195.776 27.306 195.768 27.384C195.698 27.4447 195.655 27.5833 195.638 27.8C195.638 27.8693 195.642 27.943 195.651 28.021C195.659 28.0903 195.664 28.1597 195.664 28.229C195.664 28.4023 195.633 28.5843 195.573 28.775C195.521 28.957 195.495 29.1477 195.495 29.347C195.495 29.3817 195.495 29.4163 195.495 29.451C195.495 29.4857 195.499 29.5203 195.508 29.555C195.482 29.8497 195.438 30.1053 195.378 30.322C195.317 30.5387 195.183 30.647 194.975 30.647C194.784 30.647 194.619 30.595 194.481 30.491C194.333 30.1443 194.26 29.8453 194.26 29.594C194.26 29.5767 194.26 29.5593 194.26 29.542C194.268 29.516 194.273 29.4943 194.273 29.477C194.264 29.3643 194.255 29.2603 194.247 29.165C194.247 29.0697 194.247 28.983 194.247 28.905C194.247 28.671 194.26 28.502 194.286 28.398C194.277 28.3547 194.273 28.3157 194.273 28.281C194.273 28.2463 194.273 28.2073 194.273 28.164C194.273 28.1033 194.277 28.0123 194.286 27.891C194.303 27.7697 194.32 27.644 194.338 27.514C194.364 27.3753 194.381 27.2453 194.39 27.124C194.407 27.0027 194.416 26.9073 194.416 26.838L194.572 26.344C194.606 26.214 194.641 26.11 194.676 26.032C194.719 25.954 194.767 25.8977 194.819 25.863C194.879 25.8197 194.944 25.7937 195.014 25.785C195.092 25.7763 195.187 25.772 195.3 25.772C195.646 25.772 195.872 25.8717 195.976 26.071ZM195.716 32.48C195.716 32.558 195.69 32.636 195.638 32.714C195.594 32.792 195.534 32.8613 195.456 32.922C195.386 32.974 195.304 33.0173 195.209 33.052C195.122 33.0953 195.04 33.117 194.962 33.117C194.754 33.117 194.585 33.0867 194.455 33.026C194.325 32.974 194.225 32.9047 194.156 32.818C194.095 32.7313 194.052 32.6403 194.026 32.545C194.008 32.441 194 32.3457 194 32.259C194 32.155 194.017 32.051 194.052 31.947C194.095 31.8343 194.151 31.7347 194.221 31.648C194.29 31.5613 194.372 31.492 194.468 31.44C194.563 31.3793 194.671 31.349 194.793 31.349C194.871 31.349 194.962 31.3577 195.066 31.375C195.178 31.3923 195.282 31.44 195.378 31.518C195.473 31.596 195.551 31.713 195.612 31.869C195.681 32.0163 195.716 32.22 195.716 32.48Z" fill="#235B3E"/>
<path d="M101.644 86.1597C92.3102 87.493 86.9769 94.8264 85.6436 108.16M135.644 86.1597C144.977 87.493 150.31 94.8264 151.644 108.16" stroke="#2C2A26" stroke-width="2.4" stroke-linecap="round"/>
<path d="M174.793 58H154.793C150.927 58 147.793 61.134 147.793 65V101C147.793 104.866 150.927 108 154.793 108H174.793C178.659 108 181.793 104.866 181.793 101V65C181.793 61.134 178.659 58 174.793 58Z" fill="#235B3E" stroke="#2C2A26" stroke-width="2.6"/>
<path d="M173.793 66H155.793C154.136 66 152.793 67.3431 152.793 69V93C152.793 94.6569 154.136 96 155.793 96H173.793C175.45 96 176.793 94.6569 176.793 93V69C176.793 67.3431 175.45 66 173.793 66Z" fill="#FFFDF8" stroke="#2C2A26" stroke-width="1.6"/>
<path d="M171.793 70H157.793C156.688 70 155.793 70.8954 155.793 72C155.793 73.1046 156.688 74 157.793 74H171.793C172.898 74 173.793 73.1046 173.793 72C173.793 70.8954 172.898 70 171.793 70Z" fill="#E6DCC4"/>
<path d="M171.793 77H157.793C156.688 77 155.793 77.8954 155.793 79C155.793 80.1046 156.688 81 157.793 81H171.793C172.898 81 173.793 80.1046 173.793 79C173.793 77.8954 172.898 77 171.793 77Z" fill="#E6DCC4"/>
<path d="M168.793 86H158.793C157.136 86 155.793 87.3431 155.793 89C155.793 90.6569 157.136 92 158.793 92H168.793C170.45 92 171.793 90.6569 171.793 89C171.793 87.3431 170.45 86 168.793 86Z" fill="#235B3E"/>
</svg>
