<svg width="220" height="150" viewBox="0 0 220 150" fill="none" xmlns="http://www.w3.org/2000/svg">
<path d="M198 110H22C19.7909 110 18 111.791 18 114V120C18 122.209 19.7909 124 22 124H198C200.209 124 202 122.209 202 120V114C202 111.791 200.209 110 198 110Z" fill="#D9B98C" stroke="#2C2A26" stroke-width="2.5"/>
<path d="M202 124H18V146H202V124Z" fill="#C69F6F" stroke="#2C2A26" stroke-width="2.5"/>
<path d="M93.4712 85.9425C106.174 85.9425 116.471 75.6451 116.471 62.9425C116.471 50.24 106.174 39.9425 93.4712 39.9425C80.7686 39.9425 70.4712 50.24 70.4712 62.9425C70.4712 75.6451 80.7686 85.9425 93.4712 85.9425Z" fill="#F3D2AD" stroke="#2C2A26" stroke-width="2.6"/>
<path d="M70.4712 62.9425C70.4712 45.6092 78.1379 36.9425 93.4712 36.9425C108.805 36.9425 116.471 45.6092 116.471 62.9425C110.471 53.6092 102.805 49.6092 93.4712 50.9425C84.1379 49.6092 76.4712 53.6092 70.4712 62.9425Z" fill="#5B4636" stroke="#2C2A26" stroke-width="2.2" stroke-linejoin="round"/>
<path d="M85.4714 65.2425C86.7416 65.2425 87.7714 64.2128 87.7714 62.9425C87.7714 61.6723 86.7416 60.6425 85.4714 60.6425C84.2011 60.6425 83.1714 61.6723 83.1714 62.9425C83.1714 64.2128 84.2011 65.2425 85.4714 65.2425Z" fill="#2C2A26"/>
<path d="M101.471 65.2425C102.742 65.2425 103.771 64.2128 103.771 62.9425C103.771 61.6723 102.742 60.6425 101.471 60.6425C100.201 60.6425 99.1714 61.6723 99.1714 62.9425C99.1714 64.2128 100.201 65.2425 101.471 65.2425Z" fill="#2C2A26"/>
<path opacity="0.55" d="M78.4712 76.4425C80.9565 76.4425 82.9712 74.4278 82.9712 71.9425C82.9712 69.4572 80.9565 67.4425 78.4712 67.4425C75.9859 67.4425 73.9712 69.4572 73.9712 71.9425C73.9712 74.4278 75.9859 76.4425 78.4712 76.4425Z" fill="#F4A259"/>
<path opacity="0.55" d="M108.471 76.4425C110.956 76.4425 112.971 74.4278 112.971 71.9425C112.971 69.4572 110.956 67.4425 108.471 67.4425C105.986 67.4425 103.971 69.4572 103.971 71.9425C103.971 74.4278 105.986 76.4425 108.471 76.4425Z" fill="#F4A259"/>
<path d="M83.4712 73.9425C90.1379 80.6092 96.8045 80.6092 103.471 73.9425" stroke="#2C2A26" stroke-width="2.6" stroke-linecap="round"/>
<path d="M77 86C67.6667 87.3333 62.3333 94.6667 61 108M111 86C120.333 87.3333 125.667 94.6667 127 108" stroke="#2C2A26" stroke-width="2.4" stroke-linecap="round"/>
<path d="M168 110C175.18 110 181 107.314 181 104C181 100.686 175.18 98 168 98C160.82 98 155 100.686 155 104C155 107.314 160.82 110 168 110Z" fill="#F9C98A" stroke="#2C2A26" stroke-width="2.2"/>
<path d="M168 104C175.18 104 181 101.314 181 98C181 94.6863 175.18 92 168 92C160.82 92 155 94.6863 155 98C155 101.314 160.82 104 168 104Z" fill="#F4A259" stroke="#2C2A26" stroke-width="2.2"/>
<path d="M150 92C142 84 142 75 150 71C158 75 158 84 150 92Z" fill="#E8743B" stroke="#2C2A26" stroke-width="2.4" stroke-linejoin="round"/>
<path d="M140.975 40.9753L143.975 48.9753L151.975 50.9753L143.975 53.9753L140.975 61.9753L137.975 53.9753L129.975 50.9753L137.975 48.9753L140.975 40.9753ZM186 62L188 68L194 70L188 72L186 78L184 72L178 70L184 68L186 62Z" fill="#F4A259" stroke="#2C2A26" stroke-width="1.5" stroke-linejoin="round"/>
<path d="M172.116 97.1064C172.364 97.1144 172.488 97.2784 172.488 97.5984C172.488 97.8304 172.4 97.9744 172.224 98.0304C172.056 98.0784 171.784 98.1024 171.408 98.1024H171.132C170.924 98.8304 170.716 99.3944 170.508 99.7944C170.308 100.194 170.12 100.454 169.944 100.574L169.476 100.862C169.436 100.838 169.372 100.758 169.284 100.622C169.196 100.486 169.1 100.33 168.996 100.154C168.892 99.9704 168.792 99.7824 168.696 99.5904C168.6 99.3904 168.524 99.2184 168.468 99.0744C168.3 98.8824 168.14 98.5304 167.988 98.0184H167.664C167.608 98.3064 167.56 98.5384 167.52 98.7144C167.488 98.8824 167.456 99.0184 167.424 99.1224C167.4 99.2184 167.372 99.2984 167.34 99.3624C167.316 99.4264 167.288 99.4944 167.256 99.5664C167.136 99.8144 167.032 100.018 166.944 100.178C166.856 100.338 166.772 100.47 166.692 100.574C166.62 100.67 166.544 100.75 166.464 100.814C166.392 100.87 166.308 100.922 166.212 100.97C166.108 100.914 165.996 100.81 165.876 100.658C165.756 100.498 165.644 100.326 165.54 100.142C165.444 99.9504 165.36 99.7584 165.288 99.5664C165.224 99.3744 165.188 99.2104 165.18 99.0744C165.164 99.0344 165.136 98.9304 165.096 98.7624C165.056 98.5944 165.004 98.3624 164.94 98.0664C164.828 98.0744 164.688 98.0784 164.52 98.0784C164.352 98.0784 164.152 98.0784 163.92 98.0784C163.648 98.0784 163.512 97.9224 163.512 97.6104C163.512 97.3944 163.58 97.2464 163.716 97.1664C163.852 97.0864 164.088 97.0464 164.424 97.0464H164.676C164.676 96.9344 164.66 96.8184 164.628 96.6984C164.596 96.5704 164.56 96.4424 164.52 96.3144C164.488 96.1784 164.456 96.0504 164.424 95.9304C164.4 95.8024 164.388 95.6824 164.388 95.5704C164.388 95.3784 164.444 95.2344 164.556 95.1384C164.676 95.0424 164.8 94.9944 164.928 94.9944C165.16 94.9944 165.388 95.1184 165.612 95.3664C165.604 95.3984 165.6 95.4504 165.6 95.5224C165.608 95.6104 165.616 95.7144 165.624 95.8344C165.632 95.9464 165.648 96.0824 165.672 96.2424L165.792 96.9624C165.792 96.9624 165.8 96.9944 165.816 97.0584C166.032 97.0504 166.224 97.0464 166.392 97.0464C166.56 97.0384 166.704 97.0344 166.824 97.0344L166.932 96.6744C166.98 96.3384 167.048 96.0744 167.136 95.8824V95.8104C167.136 95.5064 167.344 95.3544 167.76 95.3544C167.856 95.3544 167.932 95.3664 167.988 95.3904C168.044 95.4064 168.088 95.4384 168.12 95.4864C168.16 95.5344 168.196 95.5944 168.228 95.6664C168.26 95.7384 168.296 95.8264 168.336 95.9304C168.408 96.0984 168.46 96.2184 168.492 96.2904C168.524 96.3544 168.548 96.4104 168.564 96.4584C168.588 96.5064 168.612 96.5664 168.636 96.6384C168.66 96.7104 168.696 96.8344 168.744 97.0104C168.896 97.0104 169.032 97.0264 169.152 97.0584C169.248 97.0424 169.348 97.0344 169.452 97.0344C169.564 97.0344 169.688 97.0344 169.824 97.0344H170.304C170.336 96.8264 170.376 96.6064 170.424 96.3744C170.48 96.1424 170.54 95.9184 170.604 95.7024C170.668 95.4864 170.732 95.2944 170.796 95.1264C170.86 94.9504 170.92 94.8184 170.976 94.7304C171.048 94.6984 171.144 94.6824 171.264 94.6824C171.56 94.6824 171.776 94.7984 171.912 95.0304C171.904 95.1344 171.868 95.3304 171.804 95.6184C171.74 95.9064 171.64 96.2904 171.504 96.7704C171.488 96.8264 171.472 96.8784 171.456 96.9264C171.448 96.9744 171.436 97.0224 171.42 97.0704L172.116 97.1064ZM169.992 98.0184H169.104C169.176 98.1144 169.252 98.2624 169.332 98.4624C169.412 98.6624 169.516 98.8944 169.644 99.1584C169.7 99.0704 169.748 98.9584 169.788 98.8224C169.828 98.6784 169.864 98.5424 169.896 98.4144C169.928 98.2864 169.952 98.1824 169.968 98.1024C169.984 98.0224 169.992 97.9944 169.992 98.0184ZM166.596 98.0304C166.476 98.0384 166.368 98.0464 166.272 98.0544C166.176 98.0544 166.092 98.0544 166.02 98.0544L166.104 98.5584C166.168 98.7424 166.228 98.9264 166.284 99.1104C166.308 99.0224 166.336 98.9264 166.368 98.8224C166.408 98.7104 166.456 98.5864 166.512 98.4504L166.596 98.0304Z" fill="#2C2A26"/>
</svg>
