<svg xmlns="http://www.w3.org/2000/svg" viewBox="0 0 1200 320" fill="none" preserveAspectRatio="xMidYMax meet" role="img" aria-label="노을 진 동네, 마감딜로 불 켜진 가게들과 장바구니를 든 이웃들">
<defs><filter id="wobble"><feTurbulence type="fractalNoise" baseFrequency="0.012" numOctaves="2" result="t" seed="11"/><feDisplacementMap in="SourceGraphic" in2="t" scale="2.6" xChannelSelector="R" yChannelSelector="G"/></filter></defs>
<circle cx="600" cy="96" r="74" fill="#fbe0ad" opacity="0.45"/>
<circle cx="600" cy="96" r="50" fill="#f7b25a"/>
<g filter="url(#wobble)">
  <path d="M600 30v-16M664 60l10-12M536 60l-10-12M674 110l16-4M526 110l-16-4" stroke="#f49b3e" stroke-width="3" stroke-linecap="round"/>
  <path d="M250 70q8-7 16 0q8-7 16 0M320 50q6-6 12 0q6-6 12 0" stroke="#9a6a3a" stroke-width="2.4" stroke-linecap="round" fill="none"/>
  <rect x="0" y="288" width="1200" height="34" fill="#e9b873"/>
  <line x1="0" y1="288" x2="1200" y2="288" stroke="#2c2a26" stroke-width="3"/>
  <path d="M40 305h120M250 305h90M520 305h120M860 305h140" stroke="#c98f4e" stroke-width="3" stroke-linecap="round"/>
  <rect x="60" y="156" width="150" height="132" fill="#fdf3e0" stroke="#2c2a26" stroke-width="3"/>
  <rect x="52" y="146" width="166" height="14" rx="3" fill="#235b3e" stroke="#2c2a26" stroke-width="3"/>
  <path d="M70 196h130l-6 22H76l-6-22Z" fill="#e8743b" stroke="#2c2a26" stroke-width="2.6" stroke-linejoin="round"/>
  <path d="M84 196l-4 22M104 196l-2 22M124 196v22M144 196l2 22M164 196l4 22M184 196l6 22" stroke="#fdf3e0" stroke-width="2.4"/>
  <rect x="78" y="232" width="56" height="56" fill="#ffe08a" stroke="#2c2a26" stroke-width="2.6"/>
  <line x1="106" y1="232" x2="106" y2="288" stroke="#2c2a26" stroke-width="2"/><line x1="78" y1="260" x2="134" y2="260" stroke="#2c2a26" stroke-width="2"/>
  <rect x="150" y="244" width="44" height="44" rx="3" fill="#c69f6f" stroke="#2c2a26" stroke-width="2.6"/>
  <rect x="226" y="120" width="118" height="168" fill="#cdd9e0" stroke="#2c2a26" stroke-width="3"/>
  <rect x="240" y="140" width="26" height="26" fill="#ffe08a" stroke="#2c2a26" stroke-width="2.2"/><rect x="284" y="140" width="26" height="26" fill="#bcd0db" stroke="#2c2a26" stroke-width="2.2"/>
  <rect x="240" y="186" width="26" height="26" fill="#bcd0db" stroke="#2c2a26" stroke-width="2.2"/><rect x="284" y="186" width="26" height="26" fill="#ffe08a" stroke="#2c2a26" stroke-width="2.2"/>
  <rect x="240" y="232" width="26" height="26" fill="#ffe08a" stroke="#2c2a26" stroke-width="2.2"/><rect x="284" y="232" width="26" height="26" fill="#bcd0db" stroke="#2c2a26" stroke-width="2.2"/>
  <rect x="360" y="176" width="160" height="112" fill="#f6d7a8" stroke="#2c2a26" stroke-width="3"/>
  <rect x="352" y="166" width="176" height="14" rx="3" fill="#c9551f" stroke="#2c2a26" stroke-width="3"/>
  <path d="M372 212h136l-6 20H378l-6-20Z" fill="#fffdf8" stroke="#2c2a26" stroke-width="2.6" stroke-linejoin="round"/>
  <path d="M388 212l-3 20M412 212l-1 20M436 212v20M460 212l1 20M484 212l3 20" stroke="#e8743b" stroke-width="2.4"/>
  <rect x="382" y="244" width="58" height="44" fill="#ffe08a" stroke="#2c2a26" stroke-width="2.6"/>
  <rect x="456" y="248" width="40" height="40" rx="3" fill="#c69f6f" stroke="#2c2a26" stroke-width="2.6"/>
  <rect x="535" y="140" width="128" height="148" fill="#d6e3d0" stroke="#2c2a26" stroke-width="3"/>
  <rect x="550" y="160" width="42" height="34" fill="#ffe08a" stroke="#2c2a26" stroke-width="2.4"/><rect x="606" y="160" width="42" height="34" fill="#bccdb4" stroke="#2c2a26" stroke-width="2.4"/>
  <rect x="566" y="236" width="56" height="52" rx="3" fill="#3c7a58" stroke="#2c2a26" stroke-width="2.6"/>
  <circle cx="612" cy="262" r="3" fill="#ffe08a"/>
  <rect x="680" y="168" width="150" height="120" fill="#fbe3c0" stroke="#2c2a26" stroke-width="3"/>
  <rect x="672" y="158" width="166" height="14" rx="3" fill="#235b3e" stroke="#2c2a26" stroke-width="3"/>
  <path d="M692 204h126l-5 20H697l-5-20Z" fill="#e8743b" stroke="#2c2a26" stroke-width="2.6" stroke-linejoin="round"/>
  <path d="M708 204l-3 20M732 204l-1 20M756 204v20M780 204l1 20M804 204l3 20" stroke="#fbe3c0" stroke-width="2.4"/>
  <rect x="700" y="238" width="58" height="50" fill="#ffe08a" stroke="#2c2a26" stroke-width="2.6"/>
  <rect x="772" y="244" width="44" height="44" rx="3" fill="#c69f6f" stroke="#2c2a26" stroke-width="2.6"/>
  <rect x="845" y="128" width="116" height="160" fill="#cdd9e0" stroke="#2c2a26" stroke-width="3"/>
  <rect x="860" y="148" width="24" height="24" fill="#ffe08a" stroke="#2c2a26" stroke-width="2.2"/><rect x="902" y="148" width="24" height="24" fill="#bcd0db" stroke="#2c2a26" stroke-width="2.2"/>
  <rect x="860" y="190" width="24" height="24" fill="#bcd0db" stroke="#2c2a26" stroke-width="2.2"/><rect x="902" y="190" width="24" height="24" fill="#ffe08a" stroke="#2c2a26" stroke-width="2.2"/>
  <rect x="860" y="232" width="24" height="24" fill="#ffe08a" stroke="#2c2a26" stroke-width="2.2"/><rect x="902" y="232" width="24" height="24" fill="#bcd0db" stroke="#2c2a26" stroke-width="2.2"/>
  <rect x="980" y="158" width="160" height="130" fill="#fdf3e0" stroke="#2c2a26" stroke-width="3"/>
  <rect x="972" y="148" width="176" height="14" rx="3" fill="#c9551f" stroke="#2c2a26" stroke-width="3"/>
  <path d="M992 196h136l-6 20H998l-6-20Z" fill="#f4a259" stroke="#2c2a26" stroke-width="2.6" stroke-linejoin="round"/>
  <path d="M1008 196l-3 20M1032 196l-1 20M1056 196v20M1080 196l1 20M1104 196l3 20" stroke="#fdf3e0" stroke-width="2.4"/>
  <rect x="1002" y="232" width="58" height="56" fill="#ffe08a" stroke="#2c2a26" stroke-width="2.6"/>
  <rect x="1078" y="240" width="46" height="48" rx="3" fill="#c69f6f" stroke="#2c2a26" stroke-width="2.6"/>
  <g><line x1="205" y1="288" x2="205" y2="250" stroke="#6b4a32" stroke-width="6" stroke-linecap="round"/><path d="M205 256c-22 0-34-14-30-32 18-2 30 8 30 24 0-18 12-28 30-24 4 18-8 32-30 32Z" fill="#3c7a58" stroke="#2c2a26" stroke-width="2.6" stroke-linejoin="round"/></g>
  <g><line x1="822" y1="288" x2="822" y2="252" stroke="#6b4a32" stroke-width="6" stroke-linecap="round"/><path d="M822 258c-20 0-31-13-27-29 16-2 27 7 27 22 0-15 11-24 27-22 4 16-7 29-27 29Z" fill="#235b3e" stroke="#2c2a26" stroke-width="2.6" stroke-linejoin="round"/></g>
  <g><line x1="1158" y1="288" x2="1158" y2="256" stroke="#6b4a32" stroke-width="6" stroke-linecap="round"/><path d="M1158 262c-18 0-28-12-24-26 14-2 24 6 24 20 0-14 10-22 24-20 4 14-6 26-24 26Z" fill="#3c7a58" stroke="#2c2a26" stroke-width="2.4" stroke-linejoin="round"/></g>
  <g><circle cx="150" cy="252" r="9" fill="#f3d2ad" stroke="#2c2a26" stroke-width="2.4"/><path d="M142 286V268q0-12 8-12t8 12v18" fill="#5c7a99" stroke="#2c2a26" stroke-width="2.4" stroke-linejoin="round"/><path d="M158 272q10 0 12 12" stroke="#2c2a26" stroke-width="2.4" stroke-linecap="round"/><rect x="166" y="278" width="14" height="14" rx="2" fill="#e8743b" stroke="#2c2a26" stroke-width="2.2"/><path d="M168 278q3-5 8 0" stroke="#2c2a26" stroke-width="1.8" stroke-linecap="round"/></g>
  <g><circle cx="478" cy="254" r="9" fill="#ecc9a6" stroke="#2c2a26" stroke-width="2.4"/><path d="M470 286V270q0-12 8-12t8 12v16" fill="#235b3e" stroke="#2c2a26" stroke-width="2.4" stroke-linejoin="round"/><path d="M470 272q-10 1-12 12" stroke="#2c2a26" stroke-width="2.4" stroke-linecap="round"/><rect x="448" y="278" width="14" height="14" rx="2" fill="#f4a259" stroke="#2c2a26" stroke-width="2.2"/></g>
  <g><circle cx="762" cy="256" r="8" fill="#f3d2ad" stroke="#2c2a26" stroke-width="2.4"/><path d="M755 286V272q0-11 7-11t7 11v14" fill="#c9551f" stroke="#2c2a26" stroke-width="2.4" stroke-linejoin="round"/><path d="M769 274q9 1 11 11" stroke="#2c2a26" stroke-width="2.2" stroke-linecap="round"/><rect x="776" y="280" width="12" height="12" rx="2" fill="#235b3e" stroke="#2c2a26" stroke-width="2"/></g>
  <g><circle cx="1052" cy="254" r="9" fill="#ecc9a6" stroke="#2c2a26" stroke-width="2.4"/><path d="M1044 286V270q0-12 8-12t8 12v16" fill="#5c7a99" stroke="#2c2a26" stroke-width="2.4" stroke-linejoin="round"/><path d="M1044 272q-10 1-12 12" stroke="#2c2a26" stroke-width="2.4" stroke-linecap="round"/><rect x="1022" y="278" width="14" height="14" rx="2" fill="#e8743b" stroke="#2c2a26" stroke-width="2.2"/></g>
  <g><path d="M135 116C123 104 123 92 135 86C147 92 147 104 135 116Z" fill="#e8743b" stroke="#2c2a26" stroke-width="2.6" stroke-linejoin="round"/><circle cx="135" cy="98" r="6" fill="#fffdf8" stroke="#2c2a26" stroke-width="2"/><circle cx="135" cy="100" r="20" stroke="#235b3e" stroke-width="2" stroke-dasharray="2 7" fill="none"/></g>
  <g><path d="M440 150C428 138 428 126 440 120C452 126 452 138 440 150Z" fill="#e8743b" stroke="#2c2a26" stroke-width="2.6" stroke-linejoin="round"/><circle cx="440" cy="132" r="6" fill="#fffdf8" stroke="#2c2a26" stroke-width="2"/></g>
  <g><path d="M1060 124C1048 112 1048 100 1060 94C1072 100 1072 112 1060 124Z" fill="#e8743b" stroke="#2c2a26" stroke-width="2.6" stroke-linejoin="round"/><circle cx="1060" cy="106" r="6" fill="#fffdf8" stroke="#2c2a26" stroke-width="2"/><circle cx="1060" cy="108" r="20" stroke="#235b3e" stroke-width="2" stroke-dasharray="2 7" fill="none"/></g>
  <path d="M712 96c-4-7-14-4-14 4 0 6 14 14 14 14s14-8 14-14c0-8-10-11-14-4Z" fill="#e8743b" stroke="#2c2a26" stroke-width="2"/>
  <path d="M905 96c-3-6-12-3-12 4 0 5 12 12 12 12s12-7 12-12c0-7-9-10-12-4Z" fill="#f4a259" stroke="#2c2a26" stroke-width="2"/>
  <path d="M520 108c-10 12-12 24-7 36M530 108c0 14-2 26-3 34M540 108c10 12 12 22 7 34" stroke="#3c7a58" stroke-width="2.4" stroke-linecap="round"/>
  <path d="M340 70l3 9 9 3-9 3-3 9-3-9-9-3 9-3 3-9ZM980 60l2 7 7 2-7 2-2 7-2-7-7-2 7-2 2-7Z" fill="#f4a259" stroke="#2c2a26" stroke-width="1.6" stroke-linejoin="round"/>
</g>
<g transform="rotate(-8 470 116)"><rect x="448" y="106" width="44" height="22" rx="6" fill="#fbe2cf" stroke="#2c2a26" stroke-width="2.2"/><text x="470" y="122" text-anchor="middle" font-family="Gaegu, sans-serif" font-weight="700" font-size="14" fill="#c9551f">-50%</text></g>
</svg>
